<?xml version="1.0" encoding="UTF-8" standalone="no"?>
<!DOCTYPE svg PUBLIC "-//W3C//DTD SVG 1.1//EN"
 "http://www.w3.org/Graphics/SVG/1.1/DTD/svg11.dtd">
<!-- Generated by graphviz version 2.46.0 (20210119.1425)
 -->
<!-- Title: dependencies Pages: 1 -->
<svg width="592pt" height="211pt"
 viewBox="0.00 0.00 592.00 211.00" xmlns="http://www.w3.org/2000/svg" xmlns:xlink="http://www.w3.org/1999/xlink">
<g id="graph0" class="graph" transform="scale(1 1) rotate(0) translate(4 207)">
<title>dependencies</title>
<polygon fill="white" stroke="transparent" points="-4,4 -4,-207 588,-207 588,4 -4,4"/>
<text text-anchor="start" x="271.01" y="-42.4" font-family="sans-serif" font-weight="bold" font-size="14.00">Legend</text>
<polygon fill="#ffffb3" stroke="transparent" points="58,-10 58,-30 78,-30 78,-10 58,-10"/>
<text text-anchor="start" x="81.63" y="-15.4" font-family="sans-serif" font-size="14.00"> &#160;Declarations</text>
<polygon fill="#8dd3c7" stroke="transparent" points="171,-10 171,-30 191,-30 191,-10 171,-10"/>
<text text-anchor="start" x="194.73" y="-15.4" font-family="sans-serif" font-size="14.00"> &#160;Module</text>
<polygon fill="#80b1d3" stroke="transparent" points="257,-10 257,-30 277,-30 277,-10 257,-10"/>
<text text-anchor="start" x="280.78" y="-15.4" font-family="sans-serif" font-size="14.00"> &#160;Bootstrap</text>
<polygon fill="#fdb462" stroke="transparent" points="354,-10 354,-30 374,-30 374,-10 354,-10"/>
<text text-anchor="start" x="377.67" y="-15.4" font-family="sans-serif" font-size="14.00"> &#160;Providers</text>
<polygon fill="#fb8072" stroke="transparent" points="450,-10 450,-30 470,-30 470,-10 450,-10"/>
<text text-anchor="start" x="473.73" y="-15.4" font-family="sans-serif" font-size="14.00"> &#160;Exports</text>
<g id="clust1" class="cluster">
<title>cluster_AdminEmployeeFlexiConfigModule</title>
<polygon fill="none" stroke="black" stroke-dasharray="1,5" points="8,-70 8,-195 576,-195 576,-70 8,-70"/>
</g>
<g id="clust2" class="cluster">
<title>cluster_AdminEmployeeFlexiConfigModule_declarations</title>
<polygon fill="none" stroke="black" points="308,-78 308,-130 568,-130 568,-78 308,-78"/>
</g>
<g id="clust4" class="cluster">
<title>cluster_AdminEmployeeFlexiConfigModule_imports</title>
<polygon fill="none" stroke="black" points="16,-78 16,-130 300,-130 300,-78 16,-78"/>
</g>
<!-- AdminEmployeeFlexiConfigComponent -->
<g id="node1" class="node">
<title>AdminEmployeeFlexiConfigComponent</title>
<polygon fill="#ffffb3" stroke="black" points="560.15,-122 315.85,-122 315.85,-86 560.15,-86 560.15,-122"/>
<text text-anchor="middle" x="438" y="-99.8" font-family="Times,serif" font-size="14.00">AdminEmployeeFlexiConfigComponent</text>
</g>
<!-- AdminEmployeeFlexiConfigModule -->
<g id="node2" class="node">
<title>AdminEmployeeFlexiConfigModule</title>
<polygon fill="#8dd3c7" stroke="black" points="327.37,-187 324.37,-191 303.37,-191 300.37,-187 104.63,-187 104.63,-151 327.37,-151 327.37,-187"/>
<text text-anchor="middle" x="216" y="-164.8" font-family="Times,serif" font-size="14.00">AdminEmployeeFlexiConfigModule</text>
</g>
<!-- AdminEmployeeFlexiConfigComponent&#45;&gt;AdminEmployeeFlexiConfigModule -->
<g id="edge1" class="edge">
<title>AdminEmployeeFlexiConfigComponent&#45;&gt;AdminEmployeeFlexiConfigModule</title>
<path fill="none" stroke="black" d="M321.55,-122.11C321.55,-122.11 321.55,-140.99 321.55,-140.99"/>
<polygon fill="black" stroke="black" points="318.05,-140.99 321.55,-150.99 325.05,-140.99 318.05,-140.99"/>
</g>
<!-- NgxDaterangepickerMd -->
<g id="node3" class="node">
<title>NgxDaterangepickerMd</title>
<polygon fill="#8dd3c7" stroke="black" points="292.05,-122 289.05,-126 268.05,-126 265.05,-122 139.95,-122 139.95,-86 292.05,-86 292.05,-122"/>
<text text-anchor="middle" x="216" y="-99.8" font-family="Times,serif" font-size="14.00">NgxDaterangepickerMd</text>
</g>
<!-- NgxDaterangepickerMd&#45;&gt;AdminEmployeeFlexiConfigModule -->
<g id="edge2" class="edge">
<title>NgxDaterangepickerMd&#45;&gt;AdminEmployeeFlexiConfigModule</title>
<path fill="none" stroke="black" d="M216,-122.11C216,-122.11 216,-140.99 216,-140.99"/>
<polygon fill="black" stroke="black" points="212.5,-140.99 216,-150.99 219.5,-140.99 212.5,-140.99"/>
</g>
<!-- SharedModule -->
<g id="node4" class="node">
<title>SharedModule</title>
<polygon fill="#8dd3c7" stroke="black" points="122.42,-122 119.42,-126 98.42,-126 95.42,-122 23.58,-122 23.58,-86 122.42,-86 122.42,-122"/>
<text text-anchor="middle" x="73" y="-99.8" font-family="Times,serif" font-size="14.00">SharedModule</text>
</g>
<!-- SharedModule&#45;&gt;AdminEmployeeFlexiConfigModule -->
<g id="edge3" class="edge">
<title>SharedModule&#45;&gt;AdminEmployeeFlexiConfigModule</title>
<path fill="none" stroke="black" d="M113.39,-122.11C113.39,-122.11 113.39,-140.99 113.39,-140.99"/>
<polygon fill="black" stroke="black" points="109.89,-140.99 113.39,-150.99 116.89,-140.99 109.89,-140.99"/>
</g>
</g>
</svg>
