<?xml version="1.0" encoding="utf-8"?>
<!-- Generator: Adobe Illustrator 23.0.1, SVG Export Plug-In . SVG Version: 6.00 Build 0)  -->
<svg version="1.1" id="Layer_1" xmlns="http://www.w3.org/2000/svg" xmlns:xlink="http://www.w3.org/1999/xlink" x="0px" y="0px"
	 viewBox="0 0 24.91 24.91" style="enable-background:new 0 0 24.91 24.91;" xml:space="preserve">
<style type="text/css">
	.st0{fill:#2ECC71;}
</style>
<g>
	<path class="st0" d="M18.39,7.1c-0.19,0.01-0.36,0.1-0.49,0.24l-6.94,7.8l-4.09-3.27c-0.15-0.12-0.34-0.17-0.52-0.15
		c-0.19,0.02-0.36,0.11-0.48,0.26c-0.24,0.31-0.19,0.75,0.11,1l4.61,3.69c0.13,0.1,0.28,0.16,0.45,0.16c0.2,0,0.4-0.09,0.53-0.24
		l7.38-8.31c0.13-0.14,0.19-0.33,0.18-0.51c-0.01-0.19-0.1-0.36-0.24-0.49C18.76,7.16,18.57,7.09,18.39,7.1z"/>
	<path class="st0" d="M12.43,0.18c-6.75,0-12.25,5.5-12.25,12.25s5.5,12.25,12.25,12.25s12.25-5.5,12.25-12.25
		S19.18,0.18,12.43,0.18z M12.43,23.26C6.46,23.26,1.6,18.4,1.6,12.43C1.6,6.46,6.46,1.6,12.43,1.6s10.83,4.86,10.83,10.83
		C23.26,18.4,18.4,23.26,12.43,23.26z"/>
</g>
</svg>
