<?xml version="1.0" encoding="utf-8"?>
<!-- Generator: Adobe Illustrator 23.0.1, SVG Export Plug-In . SVG Version: 6.00 Build 0)  -->
<svg version="1.1" id="Capa_1" xmlns="http://www.w3.org/2000/svg" xmlns:xlink="http://www.w3.org/1999/xlink" x="0px" y="0px"
	 viewBox="0 0 475.2 475.2" style="enable-background:new 0 0 475.2 475.2;" xml:space="preserve">
<style type="text/css">
	.st0{fill:#9E9E9E;}
</style>
<g>
	<path class="st0" d="M402.7,72.5C358.6,28.4,300,4.1,237.6,4.1c-62.4,0-121,24.3-165.1,68.4S4.1,175.2,4.1,237.6
		c0,62.4,24.3,121,68.4,165.1c44.1,44.1,102.8,68.4,165.1,68.4s121-24.3,165.1-68.4c44.1-44.1,68.4-102.8,68.4-165.1
		S446.8,116.6,402.7,72.5z M435.1,237.6c0,52.8-20.5,102.4-57.8,139.7c-37.3,37.3-86.9,57.9-139.7,57.9s-102.4-20.6-139.7-57.9
		c-77-77-77-202.4,0-279.4C135.2,60.6,184.8,40,237.6,40c52.8,0,102.4,20.6,139.7,57.9C414.5,135.2,435.1,184.8,435.1,237.6z"/>
	<path class="st0" d="M347.1,146.1c0-4.8-1.9-9.3-5.3-12.7c0,0,0,0,0,0c-3.4-3.4-7.9-5.3-12.7-5.3c-4.8,0-9.3,1.9-12.7,5.3
		l-78.8,78.8l-78.8-78.8c-7-7-18.4-7-25.4,0s-7,18.4,0,25.4l78.8,78.8l-78.8,78.8c-3.4,3.4-5.3,7.9-5.3,12.7s1.9,9.3,5.3,12.7
		c3.4,3.4,8,5.3,12.7,5.3c4.8,0,9.4-2,12.7-5.3l78.8-78.8l78.8,78.8c3.4,3.4,8,5.3,12.7,5.3c4.9,0,9.4-1.9,12.7-5.3
		c3.4-3.4,5.3-7.9,5.3-12.7s-1.9-9.3-5.3-12.7L263,237.6l78.8-78.8C345.3,155.4,347.1,150.9,347.1,146.1z"/>
</g>
</svg>
