<?xml version="1.0" encoding="utf-8"?>
<!-- Generator: Adobe Illustrator 23.0.1, SVG Export Plug-In . SVG Version: 6.00 Build 0)  -->
<svg version="1.1" id="Layer_1" xmlns="http://www.w3.org/2000/svg" xmlns:xlink="http://www.w3.org/1999/xlink" x="0px" y="0px"
	 viewBox="0 0 401 401" style="enable-background:new 0 0 401 401;" xml:space="preserve">
<style type="text/css">
	.st0{fill:#333333;}
</style>
<path class="st0" d="M359.8,25.8c-11-11-25.4-16.4-39.8-16.4s-28.8,5.5-39.8,16.4L43.3,262.6c-1.2,1.2-2.1,2.7-2.5,4.2L9.7,379.3
	c-1,3.4,0,7,2.5,9.5c2.5,2.5,6.1,3.5,9.5,2.5l112.4-31.1c1.6-0.4,3.1-1.3,4.3-2.5l236.9-236.9c21.9-21.9,21.9-57.6,0-79.6
	L359.8,25.8z M33.1,367.9l22.5-80.8l58.4,58.5L33.1,367.9z M132.3,336.2l-67.6-67.4L263.6,70l67.4,67.4L132.3,336.2z M361.5,107.1
	l-16.6,16.6l-67.4-67.4L294,39.5c7-7,16.2-10.8,26-10.8c0,0,0,0,0.1,0c9.8,0,18.9,3.8,25.8,10.8l15.6,15.6
	C375.7,69.5,375.7,92.7,361.5,107.1z"/>
</svg>
