<?xml version="1.0" encoding="utf-8"?>
<!-- Generator: Adobe Illustrator 23.0.1, SVG Export Plug-In . SVG Version: 6.00 Build 0)  -->
<svg version="1.1" id="Layer_1" xmlns="http://www.w3.org/2000/svg" xmlns:xlink="http://www.w3.org/1999/xlink" x="0px" y="0px"
	 viewBox="0 0 401 401" style="enable-background:new 0 0 401 401;" xml:space="preserve">
<style type="text/css">
	.st0{fill:#9E9E9E;}
</style>
<path class="st0" d="M362.2,23.3c-23.3-23.3-61.2-23.3-84.5,0L40.8,260.1c-1.6,1.6-2.8,3.6-3.4,5.8L6.3,378.4
	c-1.3,4.6,0,9.5,3.4,12.9c3.4,3.4,8.3,4.7,12.9,3.4L135,363.6c2.2-0.6,4.2-1.8,5.8-3.4l236.9-236.9c23.3-23.3,23.3-61.1,0-84.5
	L362.2,23.3z M69.7,268.8L263.6,74.9l62.5,62.5L132.3,331.3L69.7,268.8z M57.3,293.8l49.9,50l-69.1,19.1L57.3,293.8z M359,104.6
	l-14.1,14.1l-62.5-62.5L296.5,42c13-13,34-13,46.9,0L359,57.6C371.9,70.6,371.9,91.6,359,104.6z"/>
</svg>
