<?xml version="1.0" encoding="utf-8"?>
<!-- Generator: Adobe Illustrator 23.0.1, SVG Export Plug-In . SVG Version: 6.00 Build 0)  -->
<svg version="1.1" id="Layer_1" xmlns="http://www.w3.org/2000/svg" xmlns:xlink="http://www.w3.org/1999/xlink" x="0px" y="0px"
	 viewBox="0 0 100 100" style="enable-background:new 0 0 100 100;" xml:space="preserve">
<style type="text/css">
	.st0{fill:#333333;}
</style>
<g>
	<path class="st0" d="M50.4,98.8C77.2,98.8,99,77,99,50.2S77.1,1.6,50.4,1.6S1.8,23.4,1.8,50.2S23.6,98.8,50.4,98.8z M50.4,7.3
		c23.7,0,42.9,19.3,42.9,42.9S74,93.1,50.4,93.1s-43-19.2-43-42.9S26.7,7.3,50.4,7.3z"/>
	<g>
		<g>
			<g>
				<path class="st0" d="M50.4,79c3.2,0,5.7-1.7,5.7-4.8c0-9.3-1.1-22.7-1.1-32c0-2.4-2.1-3.4-4.6-3.4c-1.9,0-4.5,1-4.5,3.4
					c0,9.3-1.1,22.7-1.1,32C44.8,77.3,47.4,79,50.4,79z"/>
			</g>
		</g>
		<g>
			<g>
				<path class="st0" d="M50.3,33.4c3.4,0,6-2.7,6-6c0-3.2-2.6-6-6-6c-3.2,0-5.9,2.8-5.9,6C44.4,30.7,47.1,33.4,50.3,33.4z"/>
			</g>
		</g>
	</g>
</g>
</svg>
