<?xml version="1.0" encoding="utf-8"?>
<!-- Generator: Adobe Illustrator 23.0.1, SVG Export Plug-In . SVG Version: 6.00 Build 0)  -->
<svg version="1.1" id="Layer_1" xmlns="http://www.w3.org/2000/svg" xmlns:xlink="http://www.w3.org/1999/xlink" x="0px" y="0px"
	 viewBox="0 0 24.91 24.91" style="enable-background:new 0 0 24.91 24.91;" xml:space="preserve">
<style type="text/css">
	.st0{fill:#E74C3C;}
</style>
<g>
	<path class="st0" d="M13.51,12.5l3.41-3.41c0.13-0.13,0.21-0.31,0.21-0.5c0-0.19-0.07-0.37-0.21-0.5c-0.13-0.13-0.31-0.21-0.5-0.21
		h0c-0.19,0-0.37,0.07-0.5,0.21l-3.41,3.41L8.92,7.92c-0.28-0.28-0.73-0.28-1.01,0s-0.28,0.73,0,1.01l3.58,3.58l-3.74,3.74
		c-0.28,0.28-0.28,0.73,0,1.01c0.14,0.14,0.32,0.21,0.5,0.21s0.36-0.07,0.5-0.21l3.74-3.74l3.58,3.58c0.28,0.28,0.73,0.28,1.01,0
		c0.28-0.28,0.28-0.73,0-1.01L13.51,12.5z"/>
	<path class="st0" d="M21.16,3.84c-4.78-4.78-12.55-4.78-17.32,0c-4.78,4.78-4.78,12.55,0,17.32c2.39,2.39,5.52,3.58,8.66,3.58
		c3.14,0,6.27-1.19,8.66-3.58C25.94,16.39,25.94,8.61,21.16,3.84z M23.32,12.5c0,2.9-1.12,5.61-3.17,7.66
		c-2.04,2.04-4.76,3.17-7.66,3.17s-5.61-1.12-7.66-3.17C2.8,18.11,1.68,15.4,1.68,12.5S2.8,6.89,4.84,4.84S9.6,1.68,12.5,1.68
		s5.61,1.12,7.66,3.17S23.32,9.6,23.32,12.5z"/>
</g>
</svg>
