<?xml version="1.0" encoding="utf-8"?>
<!-- Generator: Adobe Illustrator 23.0.3, SVG Export Plug-In . SVG Version: 6.00 Build 0)  -->
<svg version="1.1" id="Layer_1" xmlns="http://www.w3.org/2000/svg" xmlns:xlink="http://www.w3.org/1999/xlink" x="0px" y="0px"
	 viewBox="0 0 512 512" style="enable-background:new 0 0 512 512;" xml:space="preserve">
<style type="text/css">
	.st0{fill:#333333;}
</style>
<path class="st0" d="M234.7,490.3C105.3,490.3,0,385.1,0,255.7S105.3,21,234.7,21c45,0,88.7,12.8,126.6,37.1
	c7.4,4.8,9.6,14.7,4.8,22.1c-4.8,7.4-14.7,9.6-22.1,4.8c-32.7-20.9-70.5-32-109.3-32C122.9,53,32,143.9,32,255.7
	c0,111.7,90.9,202.7,202.7,202.7c111.7,0,202.7-90.9,202.7-202.7c0-6.7-0.3-13.3-0.9-19.8c-0.9-8.8,5.6-16.6,14.4-17.5
	c8.7-1.1,16.6,5.6,17.5,14.4c0.7,7.5,1.1,15.1,1.1,22.9C469.3,385.1,364,490.3,234.7,490.3z"/>
<path class="st0" d="M261.3,309c-4.1,0-8.2-1.6-11.3-4.7l-96-96c-6.2-6.3-6.2-16.4,0-22.6s16.4-6.2,22.6,0l84.7,84.7L484.7,47
	c6.3-6.2,16.4-6.2,22.6,0c6.2,6.2,6.2,16.4,0,22.6L272.7,304.3C269.5,307.4,265.4,309,261.3,309z"/>
</svg>
