<?xml version="1.0" encoding="utf-8"?>
<!-- Generator: Adobe Illustrator 23.0.1, SVG Export Plug-In . SVG Version: 6.00 Build 0)  -->
<svg version="1.1" id="Layer_1" xmlns="http://www.w3.org/2000/svg" xmlns:xlink="http://www.w3.org/1999/xlink" x="0px" y="0px"
	 viewBox="0 0 30 30" style="enable-background:new 0 0 30 30;" xml:space="preserve">
<style type="text/css">
	.st0{fill:#333225;}
	.st1{fill:#FFFFFF;}
</style>
<g>
	<circle class="st0" cx="15.06" cy="15.01" r="14.94"/>
	<path class="st1" d="M15.06,0.7C7.19,0.7,0.76,7.14,0.76,15.01s6.44,14.31,14.31,14.31s14.31-6.44,14.31-14.31S22.93,0.7,15.06,0.7
		z M15.06,4.99c2.36,0,4.29,1.93,4.29,4.29s-1.93,4.29-4.29,4.29s-4.29-1.93-4.29-4.29S12.7,4.99,15.06,4.99L15.06,4.99z
		 M15.06,25.65c-3.58,0-6.73-1.86-8.58-4.58c0.07-2.86,5.72-4.44,8.58-4.44s8.51,1.58,8.58,4.44
		C21.79,23.79,18.64,25.65,15.06,25.65L15.06,25.65z"/>
</g>
</svg>
