<?xml version="1.0" encoding="utf-8"?>
<!-- Generator: Adobe Illustrator 23.0.1, SVG Export Plug-In . SVG Version: 6.00 Build 0)  -->
<svg version="1.1" id="Layer_1" xmlns="http://www.w3.org/2000/svg" xmlns:xlink="http://www.w3.org/1999/xlink" x="0px" y="0px"
	 viewBox="0 0 129 129" style="enable-background:new 0 0 129 129;" xml:space="preserve">
<style type="text/css">
	.st0{fill:#333333;}
</style>
<g>
	<g>
		<path class="st0" d="M64.5,122.6c32,0,58.1-26,58.1-58.1s-26-58-58.1-58s-58,26-58,58S32.5,122.6,64.5,122.6z M64.5,14.6
			c27.5,0,49.9,22.4,49.9,49.9S92,114.4,64.5,114.4S14.6,92,14.6,64.5S37,14.6,64.5,14.6z"/>
		<path class="st0" d="M70,93.5c0.8,0.8,1.8,1.2,2.9,1.2c1,0,2.1-0.4,2.9-1.2c1.6-1.6,1.6-4.2,0-5.8L52.3,64.2l23.5-23.5
			c1.6-1.6,1.6-4.2,0-5.8s-4.2-1.6-5.8,0L43.6,61.3c-0.8,0.8-1.2,1.8-1.2,2.9c0,1.1,0.4,2.1,1.2,2.9L70,93.5z"/>
	</g>
</g>
</svg>
