<?xml version="1.0" encoding="utf-8"?>
<!-- Generator: Adobe Illustrator 22.1.0, SVG Export Plug-In . SVG Version: 6.00 Build 0)  -->
<svg version="1.1" id="Layer_1" xmlns="http://www.w3.org/2000/svg" xmlns:xlink="http://www.w3.org/1999/xlink" x="0px" y="0px"
	 viewBox="0 0 169.7 173.3" style="enable-background:new 0 0 169.7 173.3;" xml:space="preserve">
<style type="text/css">
	.st0{fill:#7F7F7F;}
</style>
<path class="st0" d="M136.2,85.7c-3.5,0-6.3,0-9.9,0c0-1.9,0-3.6,0-5.4c0-19,0-38,0-57c0-9.3-4.1-13.4-13.4-13.4
	c-19.7,0-39.3,0-59,0c-1.5,0-2.9,0.1-5,0.3c0,4.8,0,9.5,0,14.1c-0.2,14.4-8.8,23-23.1,23.2c-5.1,0.1-10.2,0-15.9,0
	c0,2.4,0,4.2,0,5.9c0,31.2,0,62.3,0,93.5c0,10.9,3.7,14.5,14.8,14.5c19.8,0,39.7,0.2,59.5-0.1c5.4-0.1,9.7,0.7,12.7,5.5
	c0.8,1.3,2.5,2.1,4.7,4c-2.6,0.3-3.8,0.5-5,0.5c-24.5,0-49,0.1-73.5,0c-14.9,0-23.1-8.4-23.1-23.3c0-33.7,0.1-67.3-0.1-101
	c0-4.7,1.3-8.3,4.7-11.5c11-10.4,21.8-21.1,33-31.4c2.4-2.2,6.4-3.9,9.7-4C69.5-0.1,91.7,0,113.9,0.1c13.8,0.1,22.3,8.9,22.3,22.8
	C136.2,43.7,136.2,64.5,136.2,85.7z"/>
<path class="st0" d="M168.3,133.9c-0.1,20.6-16.5,37-37.2,36.9c-20.6-0.1-37-16.6-37-37.3c0.1-20.6,16.6-37,37.3-36.9
	C152,96.7,168.3,113.2,168.3,133.9z M150.3,129c-6.6-6.7-13-13.2-19-19.3c-6.2,6.3-12.6,12.7-18.6,18.8c1.7,2,3.6,4.4,5.6,6.8
	c2.6-2.5,4.7-4.5,7.9-7.5c0,10.6,0,19.7,0,28.8c3.6,0,6.5,0,10.1,0c0-9.4,0-18.6,0-28.5c2.9,2.8,5.1,4.8,7.4,7
	C146.1,132.8,148.4,130.7,150.3,129z"/>
</svg>
