<?xml version="1.0" encoding="UTF-8" standalone="no"?>
<!DOCTYPE svg PUBLIC "-//W3C//DTD SVG 1.1//EN"
 "http://www.w3.org/Graphics/SVG/1.1/DTD/svg11.dtd">
<!-- Generated by graphviz version 2.46.0 (20210119.1425)
 -->
<!-- Title: dependencies Pages: 1 -->
<svg width="504pt" height="211pt"
 viewBox="0.00 0.00 504.00 211.00" xmlns="http://www.w3.org/2000/svg" xmlns:xlink="http://www.w3.org/1999/xlink">
<g id="graph0" class="graph" transform="scale(1 1) rotate(0) translate(4 207)">
<title>dependencies</title>
<polygon fill="white" stroke="transparent" points="-4,4 -4,-207 500,-207 500,4 -4,4"/>
<text text-anchor="start" x="227.01" y="-42.4" font-family="sans-serif" font-weight="bold" font-size="14.00">Legend</text>
<polygon fill="#ffffb3" stroke="transparent" points="14,-10 14,-30 34,-30 34,-10 14,-10"/>
<text text-anchor="start" x="37.63" y="-15.4" font-family="sans-serif" font-size="14.00"> &#160;Declarations</text>
<polygon fill="#8dd3c7" stroke="transparent" points="127,-10 127,-30 147,-30 147,-10 127,-10"/>
<text text-anchor="start" x="150.73" y="-15.4" font-family="sans-serif" font-size="14.00"> &#160;Module</text>
<polygon fill="#80b1d3" stroke="transparent" points="213,-10 213,-30 233,-30 233,-10 213,-10"/>
<text text-anchor="start" x="236.78" y="-15.4" font-family="sans-serif" font-size="14.00"> &#160;Bootstrap</text>
<polygon fill="#fdb462" stroke="transparent" points="310,-10 310,-30 330,-30 330,-10 310,-10"/>
<text text-anchor="start" x="333.67" y="-15.4" font-family="sans-serif" font-size="14.00"> &#160;Providers</text>
<polygon fill="#fb8072" stroke="transparent" points="406,-10 406,-30 426,-30 426,-10 406,-10"/>
<text text-anchor="start" x="429.73" y="-15.4" font-family="sans-serif" font-size="14.00"> &#160;Exports</text>
<g id="clust1" class="cluster">
<title>cluster_HospitalModule</title>
<polygon fill="none" stroke="black" stroke-dasharray="1,5" points="58.5,-70 58.5,-195 437.5,-195 437.5,-70 58.5,-70"/>
</g>
<g id="clust2" class="cluster">
<title>cluster_HospitalModule_declarations</title>
<polygon fill="none" stroke="black" points="188.5,-78 188.5,-130 429.5,-130 429.5,-78 188.5,-78"/>
</g>
<g id="clust5" class="cluster">
<title>cluster_HospitalModule_imports</title>
<polygon fill="none" stroke="black" points="66.5,-78 66.5,-130 180.5,-130 180.5,-78 66.5,-78"/>
</g>
<!-- HospitalComponent -->
<g id="node1" class="node">
<title>HospitalComponent</title>
<polygon fill="#ffffb3" stroke="black" points="421.77,-122 293.23,-122 293.23,-86 421.77,-86 421.77,-122"/>
<text text-anchor="middle" x="357.5" y="-99.8" font-family="Times,serif" font-size="14.00">HospitalComponent</text>
</g>
<!-- HospitalModule -->
<g id="node3" class="node">
<title>HospitalModule</title>
<polygon fill="#8dd3c7" stroke="black" points="288.99,-187 285.99,-191 264.99,-191 261.99,-187 182.01,-187 182.01,-151 288.99,-151 288.99,-187"/>
<text text-anchor="middle" x="235.5" y="-164.8" font-family="Times,serif" font-size="14.00">HospitalModule</text>
</g>
<!-- HospitalComponent&#45;&gt;HospitalModule -->
<g id="edge1" class="edge">
<title>HospitalComponent&#45;&gt;HospitalModule</title>
<path fill="none" stroke="black" d="M293.13,-104C286.42,-104 281.99,-104 281.99,-104 281.99,-104 281.99,-140.89 281.99,-140.89"/>
<polygon fill="black" stroke="black" points="278.49,-140.89 281.99,-150.89 285.49,-140.89 278.49,-140.89"/>
</g>
<!-- SearchPipe -->
<g id="node2" class="node">
<title>SearchPipe</title>
<polygon fill="#ffffb3" stroke="black" points="274.97,-122 196.03,-122 196.03,-86 274.97,-86 274.97,-122"/>
<text text-anchor="middle" x="235.5" y="-99.8" font-family="Times,serif" font-size="14.00">SearchPipe</text>
</g>
<!-- SearchPipe&#45;&gt;HospitalModule -->
<g id="edge2" class="edge">
<title>SearchPipe&#45;&gt;HospitalModule</title>
<path fill="none" stroke="black" d="M235.5,-122.11C235.5,-122.11 235.5,-140.99 235.5,-140.99"/>
<polygon fill="black" stroke="black" points="232,-140.99 235.5,-150.99 239,-140.99 232,-140.99"/>
</g>
<!-- SharedModule -->
<g id="node4" class="node">
<title>SharedModule</title>
<polygon fill="#8dd3c7" stroke="black" points="172.92,-122 169.92,-126 148.92,-126 145.92,-122 74.08,-122 74.08,-86 172.92,-86 172.92,-122"/>
<text text-anchor="middle" x="123.5" y="-99.8" font-family="Times,serif" font-size="14.00">SharedModule</text>
</g>
<!-- SharedModule&#45;&gt;HospitalModule -->
<g id="edge3" class="edge">
<title>SharedModule&#45;&gt;HospitalModule</title>
<path fill="none" stroke="black" d="M172.82,-104C182.12,-104 189.01,-104 189.01,-104 189.01,-104 189.01,-140.89 189.01,-140.89"/>
<polygon fill="black" stroke="black" points="185.51,-140.89 189.01,-150.89 192.51,-140.89 185.51,-140.89"/>
</g>
</g>
</svg>
