<?xml version="1.0" encoding="UTF-8" standalone="no"?>
<!DOCTYPE svg PUBLIC "-//W3C//DTD SVG 1.1//EN"
 "http://www.w3.org/Graphics/SVG/1.1/DTD/svg11.dtd">
<!-- Generated by graphviz version 2.46.0 (20210119.1425)
 -->
<!-- Title: dependencies Pages: 1 -->
<svg width="550pt" height="284pt"
 viewBox="0.00 0.00 550.00 284.00" xmlns="http://www.w3.org/2000/svg" xmlns:xlink="http://www.w3.org/1999/xlink">
<g id="graph0" class="graph" transform="scale(1 1) rotate(0) translate(4 280)">
<title>dependencies</title>
<polygon fill="white" stroke="transparent" points="-4,4 -4,-280 546,-280 546,4 -4,4"/>
<text text-anchor="start" x="250.01" y="-42.4" font-family="sans-serif" font-weight="bold" font-size="14.00">Legend</text>
<polygon fill="#ffffb3" stroke="transparent" points="37,-10 37,-30 57,-30 57,-10 37,-10"/>
<text text-anchor="start" x="60.63" y="-15.4" font-family="sans-serif" font-size="14.00"> &#160;Declarations</text>
<polygon fill="#8dd3c7" stroke="transparent" points="150,-10 150,-30 170,-30 170,-10 150,-10"/>
<text text-anchor="start" x="173.73" y="-15.4" font-family="sans-serif" font-size="14.00"> &#160;Module</text>
<polygon fill="#80b1d3" stroke="transparent" points="236,-10 236,-30 256,-30 256,-10 236,-10"/>
<text text-anchor="start" x="259.78" y="-15.4" font-family="sans-serif" font-size="14.00"> &#160;Bootstrap</text>
<polygon fill="#fdb462" stroke="transparent" points="333,-10 333,-30 353,-30 353,-10 333,-10"/>
<text text-anchor="start" x="356.67" y="-15.4" font-family="sans-serif" font-size="14.00"> &#160;Providers</text>
<polygon fill="#fb8072" stroke="transparent" points="429,-10 429,-30 449,-30 449,-10 429,-10"/>
<text text-anchor="start" x="452.73" y="-15.4" font-family="sans-serif" font-size="14.00"> &#160;Exports</text>
<g id="clust1" class="cluster">
<title>cluster_SharedModule</title>
<polygon fill="none" stroke="black" stroke-dasharray="1,5" points="8,-70 8,-268 534,-268 534,-70 8,-70"/>
</g>
<g id="clust2" class="cluster">
<title>cluster_SharedModule_declarations</title>
<polygon fill="none" stroke="black" points="22,-78 22,-130 520,-130 520,-78 22,-78"/>
</g>
<g id="clust7" class="cluster">
<title>cluster_SharedModule_exports</title>
<polygon fill="none" stroke="black" points="16,-208 16,-260 526,-260 526,-208 16,-208"/>
</g>
<!-- HeaderComponent -->
<g id="node1" class="node">
<title>HeaderComponent</title>
<polygon fill="#ffffb3" stroke="black" points="511.74,-122 390.26,-122 390.26,-86 511.74,-86 511.74,-122"/>
<text text-anchor="middle" x="451" y="-99.8" font-family="Times,serif" font-size="14.00">HeaderComponent</text>
</g>
<!-- SharedModule -->
<g id="node4" class="node">
<title>SharedModule</title>
<polygon fill="#8dd3c7" stroke="black" points="318.42,-187 315.42,-191 294.42,-191 291.42,-187 219.58,-187 219.58,-151 318.42,-151 318.42,-187"/>
<text text-anchor="middle" x="269" y="-164.8" font-family="Times,serif" font-size="14.00">SharedModule</text>
</g>
<!-- HeaderComponent&#45;&gt;SharedModule -->
<g id="edge1" class="edge">
<title>HeaderComponent&#45;&gt;SharedModule</title>
<path fill="none" stroke="black" d="M472.04,-122.02C472.04,-139.37 472.04,-163 472.04,-163 472.04,-163 328.41,-163 328.41,-163"/>
<polygon fill="black" stroke="black" points="328.41,-159.5 318.41,-163 328.41,-166.5 328.41,-159.5"/>
</g>
<!-- IncomeTaxSimulationComponent -->
<g id="node2" class="node">
<title>IncomeTaxSimulationComponent</title>
<polygon fill="#ffffb3" stroke="black" points="372.03,-122 165.97,-122 165.97,-86 372.03,-86 372.03,-122"/>
<text text-anchor="middle" x="269" y="-99.8" font-family="Times,serif" font-size="14.00">IncomeTaxSimulationComponent</text>
</g>
<!-- IncomeTaxSimulationComponent&#45;&gt;SharedModule -->
<g id="edge2" class="edge">
<title>IncomeTaxSimulationComponent&#45;&gt;SharedModule</title>
<path fill="none" stroke="black" d="M269,-122.11C269,-122.11 269,-140.99 269,-140.99"/>
<polygon fill="black" stroke="black" points="265.5,-140.99 269,-150.99 272.5,-140.99 265.5,-140.99"/>
</g>
<!-- ModalComponent -->
<g id="node3" class="node">
<title>ModalComponent</title>
<polygon fill="#ffffb3" stroke="black" points="147.88,-122 30.12,-122 30.12,-86 147.88,-86 147.88,-122"/>
<text text-anchor="middle" x="89" y="-99.8" font-family="Times,serif" font-size="14.00">ModalComponent</text>
</g>
<!-- ModalComponent&#45;&gt;SharedModule -->
<g id="edge3" class="edge">
<title>ModalComponent&#45;&gt;SharedModule</title>
<path fill="none" stroke="black" d="M107.15,-122.02C107.15,-139.37 107.15,-163 107.15,-163 107.15,-163 209.56,-163 209.56,-163"/>
<polygon fill="black" stroke="black" points="209.56,-166.5 219.56,-163 209.56,-159.5 209.56,-166.5"/>
</g>
<!-- HeaderComponent  -->
<g id="node5" class="node">
<title>HeaderComponent </title>
<polygon fill="#fb8072" stroke="black" points="517.74,-252 392.26,-252 392.26,-216 517.74,-216 517.74,-252"/>
<text text-anchor="middle" x="455" y="-229.8" font-family="Times,serif" font-size="14.00">HeaderComponent </text>
</g>
<!-- SharedModule&#45;&gt;HeaderComponent  -->
<g id="edge4" class="edge">
<title>SharedModule&#45;&gt;HeaderComponent </title>
<path fill="none" stroke="black" stroke-dasharray="5,2" d="M318.41,-175C366.45,-175 432.21,-175 432.21,-175 432.21,-175 432.21,-205.98 432.21,-205.98"/>
<polygon fill="black" stroke="black" points="428.71,-205.98 432.21,-215.98 435.71,-205.98 428.71,-205.98"/>
</g>
<!-- IncomeTaxSimulationComponent  -->
<g id="node6" class="node">
<title>IncomeTaxSimulationComponent </title>
<polygon fill="#fb8072" stroke="black" points="374.03,-252 163.97,-252 163.97,-216 374.03,-216 374.03,-252"/>
<text text-anchor="middle" x="269" y="-229.8" font-family="Times,serif" font-size="14.00">IncomeTaxSimulationComponent </text>
</g>
<!-- SharedModule&#45;&gt;IncomeTaxSimulationComponent  -->
<g id="edge5" class="edge">
<title>SharedModule&#45;&gt;IncomeTaxSimulationComponent </title>
<path fill="none" stroke="black" stroke-dasharray="5,2" d="M269,-187.11C269,-187.11 269,-205.99 269,-205.99"/>
<polygon fill="black" stroke="black" points="265.5,-205.99 269,-215.99 272.5,-205.99 265.5,-205.99"/>
</g>
<!-- ModalComponent  -->
<g id="node7" class="node">
<title>ModalComponent </title>
<polygon fill="#fb8072" stroke="black" points="145.88,-252 24.12,-252 24.12,-216 145.88,-216 145.88,-252"/>
<text text-anchor="middle" x="85" y="-229.8" font-family="Times,serif" font-size="14.00">ModalComponent </text>
</g>
<!-- SharedModule&#45;&gt;ModalComponent  -->
<g id="edge6" class="edge">
<title>SharedModule&#45;&gt;ModalComponent </title>
<path fill="none" stroke="black" stroke-dasharray="5,2" d="M219.72,-175C160.39,-175 68.6,-175 68.6,-175 68.6,-175 68.6,-205.98 68.6,-205.98"/>
<polygon fill="black" stroke="black" points="65.1,-205.98 68.6,-215.98 72.1,-205.98 65.1,-205.98"/>
</g>
</g>
</svg>
