<?xml version="1.0" encoding="UTF-8" standalone="no"?>
<!DOCTYPE svg PUBLIC "-//W3C//DTD SVG 1.1//EN"
 "http://www.w3.org/Graphics/SVG/1.1/DTD/svg11.dtd">
<!-- Generated by graphviz version 2.46.0 (20210119.1425)
 -->
<!-- Title: dependencies Pages: 1 -->
<svg width="504pt" height="211pt"
 viewBox="0.00 0.00 504.00 211.00" xmlns="http://www.w3.org/2000/svg" xmlns:xlink="http://www.w3.org/1999/xlink">
<g id="graph0" class="graph" transform="scale(1 1) rotate(0) translate(4 207)">
<title>dependencies</title>
<polygon fill="white" stroke="transparent" points="-4,4 -4,-207 500,-207 500,4 -4,4"/>
<text text-anchor="start" x="227.01" y="-42.4" font-family="sans-serif" font-weight="bold" font-size="14.00">Legend</text>
<polygon fill="#ffffb3" stroke="transparent" points="14,-10 14,-30 34,-30 34,-10 14,-10"/>
<text text-anchor="start" x="37.63" y="-15.4" font-family="sans-serif" font-size="14.00"> &#160;Declarations</text>
<polygon fill="#8dd3c7" stroke="transparent" points="127,-10 127,-30 147,-30 147,-10 127,-10"/>
<text text-anchor="start" x="150.73" y="-15.4" font-family="sans-serif" font-size="14.00"> &#160;Module</text>
<polygon fill="#80b1d3" stroke="transparent" points="213,-10 213,-30 233,-30 233,-10 213,-10"/>
<text text-anchor="start" x="236.78" y="-15.4" font-family="sans-serif" font-size="14.00"> &#160;Bootstrap</text>
<polygon fill="#fdb462" stroke="transparent" points="310,-10 310,-30 330,-30 330,-10 310,-10"/>
<text text-anchor="start" x="333.67" y="-15.4" font-family="sans-serif" font-size="14.00"> &#160;Providers</text>
<polygon fill="#fb8072" stroke="transparent" points="406,-10 406,-30 426,-30 426,-10 406,-10"/>
<text text-anchor="start" x="429.73" y="-15.4" font-family="sans-serif" font-size="14.00"> &#160;Exports</text>
<g id="clust1" class="cluster">
<title>cluster_GiftAcknowledgeModule</title>
<polygon fill="none" stroke="black" stroke-dasharray="1,5" points="80,-70 80,-195 416,-195 416,-70 80,-70"/>
</g>
<g id="clust2" class="cluster">
<title>cluster_GiftAcknowledgeModule_declarations</title>
<polygon fill="none" stroke="black" points="210,-78 210,-130 408,-130 408,-78 210,-78"/>
</g>
<g id="clust4" class="cluster">
<title>cluster_GiftAcknowledgeModule_imports</title>
<polygon fill="none" stroke="black" points="88,-78 88,-130 202,-130 202,-78 88,-78"/>
</g>
<!-- GiftAcknowledgeComponent -->
<g id="node1" class="node">
<title>GiftAcknowledgeComponent</title>
<polygon fill="#ffffb3" stroke="black" points="399.63,-122 218.37,-122 218.37,-86 399.63,-86 399.63,-122"/>
<text text-anchor="middle" x="309" y="-99.8" font-family="Times,serif" font-size="14.00">GiftAcknowledgeComponent</text>
</g>
<!-- GiftAcknowledgeModule -->
<g id="node2" class="node">
<title>GiftAcknowledgeModule</title>
<polygon fill="#8dd3c7" stroke="black" points="317.85,-187 314.85,-191 293.85,-191 290.85,-187 158.15,-187 158.15,-151 317.85,-151 317.85,-187"/>
<text text-anchor="middle" x="238" y="-164.8" font-family="Times,serif" font-size="14.00">GiftAcknowledgeModule</text>
</g>
<!-- GiftAcknowledgeComponent&#45;&gt;GiftAcknowledgeModule -->
<g id="edge1" class="edge">
<title>GiftAcknowledgeComponent&#45;&gt;GiftAcknowledgeModule</title>
<path fill="none" stroke="black" d="M268.05,-122.11C268.05,-122.11 268.05,-140.99 268.05,-140.99"/>
<polygon fill="black" stroke="black" points="264.55,-140.99 268.05,-150.99 271.55,-140.99 264.55,-140.99"/>
</g>
<!-- SharedModule -->
<g id="node3" class="node">
<title>SharedModule</title>
<polygon fill="#8dd3c7" stroke="black" points="194.42,-122 191.42,-126 170.42,-126 167.42,-122 95.58,-122 95.58,-86 194.42,-86 194.42,-122"/>
<text text-anchor="middle" x="145" y="-99.8" font-family="Times,serif" font-size="14.00">SharedModule</text>
</g>
<!-- SharedModule&#45;&gt;GiftAcknowledgeModule -->
<g id="edge2" class="edge">
<title>SharedModule&#45;&gt;GiftAcknowledgeModule</title>
<path fill="none" stroke="black" d="M176.14,-122.11C176.14,-122.11 176.14,-140.99 176.14,-140.99"/>
<polygon fill="black" stroke="black" points="172.64,-140.99 176.14,-150.99 179.64,-140.99 172.64,-140.99"/>
</g>
</g>
</svg>
