<?xml version="1.0" encoding="UTF-8" standalone="no"?>
<!DOCTYPE svg PUBLIC "-//W3C//DTD SVG 1.1//EN"
 "http://www.w3.org/Graphics/SVG/1.1/DTD/svg11.dtd">
<!-- Generated by graphviz version 2.46.0 (20210119.1425)
 -->
<!-- Title: dependencies Pages: 1 -->
<svg width="512pt" height="211pt"
 viewBox="0.00 0.00 512.00 211.00" xmlns="http://www.w3.org/2000/svg" xmlns:xlink="http://www.w3.org/1999/xlink">
<g id="graph0" class="graph" transform="scale(1 1) rotate(0) translate(4 207)">
<title>dependencies</title>
<polygon fill="white" stroke="transparent" points="-4,4 -4,-207 508,-207 508,4 -4,4"/>
<text text-anchor="start" x="231.01" y="-42.4" font-family="sans-serif" font-weight="bold" font-size="14.00">Legend</text>
<polygon fill="#ffffb3" stroke="transparent" points="18,-10 18,-30 38,-30 38,-10 18,-10"/>
<text text-anchor="start" x="41.63" y="-15.4" font-family="sans-serif" font-size="14.00"> &#160;Declarations</text>
<polygon fill="#8dd3c7" stroke="transparent" points="131,-10 131,-30 151,-30 151,-10 131,-10"/>
<text text-anchor="start" x="154.73" y="-15.4" font-family="sans-serif" font-size="14.00"> &#160;Module</text>
<polygon fill="#80b1d3" stroke="transparent" points="217,-10 217,-30 237,-30 237,-10 217,-10"/>
<text text-anchor="start" x="240.78" y="-15.4" font-family="sans-serif" font-size="14.00"> &#160;Bootstrap</text>
<polygon fill="#fdb462" stroke="transparent" points="314,-10 314,-30 334,-30 334,-10 314,-10"/>
<text text-anchor="start" x="337.67" y="-15.4" font-family="sans-serif" font-size="14.00"> &#160;Providers</text>
<polygon fill="#fb8072" stroke="transparent" points="410,-10 410,-30 430,-30 430,-10 410,-10"/>
<text text-anchor="start" x="433.73" y="-15.4" font-family="sans-serif" font-size="14.00"> &#160;Exports</text>
<g id="clust1" class="cluster">
<title>cluster_SalaryCardModule</title>
<polygon fill="none" stroke="black" stroke-dasharray="1,5" points="8,-70 8,-195 496,-195 496,-70 8,-70"/>
</g>
<g id="clust6" class="cluster">
<title>cluster_SalaryCardModule_imports</title>
<polygon fill="none" stroke="black" points="374,-78 374,-130 488,-130 488,-78 374,-78"/>
</g>
<g id="clust2" class="cluster">
<title>cluster_SalaryCardModule_declarations</title>
<polygon fill="none" stroke="black" points="16,-78 16,-130 366,-130 366,-78 16,-78"/>
</g>
<!-- NewPipe -->
<g id="node1" class="node">
<title>NewPipe</title>
<polygon fill="#ffffb3" stroke="black" points="357.82,-122 290.18,-122 290.18,-86 357.82,-86 357.82,-122"/>
<text text-anchor="middle" x="324" y="-99.8" font-family="Times,serif" font-size="14.00">NewPipe</text>
</g>
<!-- SalaryCardModule -->
<g id="node4" class="node">
<title>SalaryCardModule</title>
<polygon fill="#8dd3c7" stroke="black" points="323.03,-187 320.03,-191 299.03,-191 296.03,-187 200.97,-187 200.97,-151 323.03,-151 323.03,-187"/>
<text text-anchor="middle" x="262" y="-164.8" font-family="Times,serif" font-size="14.00">SalaryCardModule</text>
</g>
<!-- NewPipe&#45;&gt;SalaryCardModule -->
<g id="edge1" class="edge">
<title>NewPipe&#45;&gt;SalaryCardModule</title>
<path fill="none" stroke="black" d="M306.8,-122.11C306.8,-122.11 306.8,-140.99 306.8,-140.99"/>
<polygon fill="black" stroke="black" points="303.3,-140.99 306.8,-150.99 310.3,-140.99 303.3,-140.99"/>
</g>
<!-- SalaryCardComponent -->
<g id="node2" class="node">
<title>SalaryCardComponent</title>
<polygon fill="#ffffb3" stroke="black" points="272.31,-122 127.69,-122 127.69,-86 272.31,-86 272.31,-122"/>
<text text-anchor="middle" x="200" y="-99.8" font-family="Times,serif" font-size="14.00">SalaryCardComponent</text>
</g>
<!-- SalaryCardComponent&#45;&gt;SalaryCardModule -->
<g id="edge2" class="edge">
<title>SalaryCardComponent&#45;&gt;SalaryCardModule</title>
<path fill="none" stroke="black" d="M236.45,-122.11C236.45,-122.11 236.45,-140.99 236.45,-140.99"/>
<polygon fill="black" stroke="black" points="232.95,-140.99 236.45,-150.99 239.95,-140.99 232.95,-140.99"/>
</g>
<!-- securedLink -->
<g id="node3" class="node">
<title>securedLink</title>
<polygon fill="#ffffb3" stroke="black" points="109.69,-122 24.31,-122 24.31,-86 109.69,-86 109.69,-122"/>
<text text-anchor="middle" x="67" y="-99.8" font-family="Times,serif" font-size="14.00">securedLink</text>
</g>
<!-- securedLink&#45;&gt;SalaryCardModule -->
<g id="edge3" class="edge">
<title>securedLink&#45;&gt;SalaryCardModule</title>
<path fill="none" stroke="black" d="M67,-122.11C67,-141.34 67,-169 67,-169 67,-169 190.84,-169 190.84,-169"/>
<polygon fill="black" stroke="black" points="190.84,-172.5 200.84,-169 190.84,-165.5 190.84,-172.5"/>
</g>
<!-- SharedModule -->
<g id="node5" class="node">
<title>SharedModule</title>
<polygon fill="#8dd3c7" stroke="black" points="480.42,-122 477.42,-126 456.42,-126 453.42,-122 381.58,-122 381.58,-86 480.42,-86 480.42,-122"/>
<text text-anchor="middle" x="431" y="-99.8" font-family="Times,serif" font-size="14.00">SharedModule</text>
</g>
<!-- SharedModule&#45;&gt;SalaryCardModule -->
<g id="edge4" class="edge">
<title>SharedModule&#45;&gt;SalaryCardModule</title>
<path fill="none" stroke="black" d="M431,-122.11C431,-141.34 431,-169 431,-169 431,-169 333.49,-169 333.49,-169"/>
<polygon fill="black" stroke="black" points="333.49,-165.5 323.49,-169 333.49,-172.5 333.49,-165.5"/>
</g>
</g>
</svg>
