<svg xmlns="http://www.w3.org/2000/svg" width="50.197" height="43.428" viewBox="0 0 50.197 43.428"><g transform="translate(-4 628.9)"><path d="M306.239-628.747a4.839,4.839,0,0,0-1.064,1.94,3.286,3.286,0,0,0,.633,2.885,4.561,4.561,0,0,0,.883.855,13.661,13.661,0,0,0,.021-1.724c-.021-.946-.021-1.669-.007-1.613.042.118.549,3.045.709,4.081a2.881,2.881,0,0,0,.16.716,3.058,3.058,0,0,0,.111-.758l.07-.765.327-.334a2.261,2.261,0,0,0,.674-1.022,3.517,3.517,0,0,0,0-2.058,3.715,3.715,0,0,0-1.961-2.183l-.389-.174Z" transform="translate(-280.144)" fill="#e74c3c"/><path d="M381-627.522a3.206,3.206,0,0,0-1.613,3.087,3.809,3.809,0,0,0,.494,1.391c.125.153.125.153.313-.4.111-.3.236-.66.285-.793s.188-.494.306-.8.209-.521.209-.473-.167.932-.382,1.968-.375,1.94-.362,2,.153-.16.313-.487c.292-.591.313-.612.7-.779a2.24,2.24,0,0,0,1.2-1.1,3.291,3.291,0,0,0-.556-3.622C381.627-627.842,381.488-627.842,381-627.522Z" transform="translate(-349.261 -1.058)" fill="#e74c3c"/><path d="M214.449-612.645a3.041,3.041,0,0,0-.626.89,2.036,2.036,0,0,0-.243,1.293,2.218,2.218,0,0,0,.424,1.585,2.139,2.139,0,0,0,.994.744c.076,0,.195.216.382.667.16.368.285.6.3.528s-.09-1-.222-2.065-.236-1.947-.229-1.961.188.6.4,1.37a11.745,11.745,0,0,0,.424,1.391,4.586,4.586,0,0,0,.619-1.251,2.781,2.781,0,0,0-.744-2.718A3.537,3.537,0,0,0,214.88-613,2.082,2.082,0,0,0,214.449-612.645Z" transform="translate(-195.007 -14.795)" fill="#e74c3c"/><path d="M470.3-607.609a6.215,6.215,0,0,0-3.692,2.072,4.624,4.624,0,0,0-.939,2.969,4.4,4.4,0,0,0,.146,1.6,11.868,11.868,0,0,0,.793-.925c.41-.508.834-1.022.939-1.154s.306-.368.438-.528.494-.591.793-.959.556-.674.57-.674-1.481,2.482-2.913,4.79a12.2,12.2,0,0,0-1.064,1.87c.021.021.16-.083.3-.236s.528-.521.855-.827l.6-.556h.619a3.16,3.16,0,0,0,1.954-.6,5.179,5.179,0,0,0,1.592-6.438C471.029-607.769,471.078-607.748,470.3-607.609Z" transform="translate(-429.291 -19.733)" fill="#e74c3c"/><path d="M109.18-590.645a6.33,6.33,0,0,0-.368.89,3.7,3.7,0,0,0-.216,1.53,4.654,4.654,0,0,0,.487,2.371,5.7,5.7,0,0,0,1.231,1.641,4.005,4.005,0,0,0,2.565.855c.341-.042.348-.042,1.307.869.681.64.848.779.806.667-.021-.07-.487-.848-1.022-1.738s-1.036-1.689-1.1-1.794-.424-.688-.806-1.314a10.388,10.388,0,0,1-.994-1.662,6.678,6.678,0,0,1,.584.667c.3.368.674.813.834.994s.375.452.487.6.271.348.362.445.382.445.654.779a4.157,4.157,0,0,0,.549.612c.209,0,.216-2.086.007-2.857a5.192,5.192,0,0,0-4.345-3.706C109.423-590.951,109.361-590.944,109.18-590.645Z" transform="translate(-97.324 -35.363)" fill="#e74c3c"/><path d="M404.032-546.8a3.776,3.776,0,0,0-1.189,1.377,1.835,1.835,0,0,0-.257,1.161,2.443,2.443,0,0,0,.2,1.119c.188.459.431.869.514.869a2.258,2.258,0,0,0,.188-.577,9.388,9.388,0,0,1,.57-1.981c.014.056-.076.876-.195,1.815-.278,2.26-.271,2.336.056,1.543.216-.494.306-.647.473-.723a2.34,2.34,0,0,0,1.057-.959,3,3,0,0,0-.542-3.483,1.315,1.315,0,0,0-.48-.362A.994.994,0,0,0,404.032-546.8Z" transform="translate(-370.873 -76.206)" fill="#e74c3c"/><path d="M271.293-544.638a3.327,3.327,0,0,0-.577.813,2.078,2.078,0,0,0-.216,1.224c0,.7.014.793.188,1.112a1.836,1.836,0,0,0,.869.9c.271.118.306.167.508.709a2.12,2.12,0,0,0,.257.556c.021-.028-.1-1.585-.292-3.56l-.035-.348.1.417c.056.229.2.834.32,1.335a5.654,5.654,0,0,0,.264.925,3.273,3.273,0,0,0,.6-1.078,3.723,3.723,0,0,0,.035-1.564,3.91,3.91,0,0,0-1.078-1.481,2.055,2.055,0,0,0-.5-.327A1.77,1.77,0,0,0,271.293-544.638Z" transform="translate(-247.972 -78.067)" fill="#e74c3c"/><path d="M35.208-520.527c-.327.042-.355.056-.445.32a5.669,5.669,0,0,0,.049,2.336,4.269,4.269,0,0,0,2.635,2.851,3.823,3.823,0,0,0,1.856.028c.292-.1.264-.111.841.229a5.283,5.283,0,0,0,1.147.584c0-.035-1-1.05-2.225-2.267s-2.2-2.2-2.162-2.183q.083.031,2.663,1.954a8.1,8.1,0,0,0,.939.647,6.183,6.183,0,0,0-.341-1.759,3.985,3.985,0,0,0-1.981-2.273A6.18,6.18,0,0,0,35.208-520.527Z" transform="translate(-28.532 -100.809)" fill="#e74c3c"/><path d="M346.515-515.652a2.1,2.1,0,0,0-.334,2.26,2.685,2.685,0,0,0,.438.647l.236.229.07-.925.07-.925.125,1.217c.174,1.641.209,1.738.327,1.008a.913.913,0,0,1,.313-.64,1.5,1.5,0,0,0,.5-1.064,2.2,2.2,0,0,0-.389-1.439,2.037,2.037,0,0,0-.959-.716C346.835-516,346.668-515.854,346.515-515.652Z" transform="translate(-318.209 -105.051)" fill="#e74c3c"/><path d="M533.635-511.783a4.114,4.114,0,0,0-3.407,3.24c-.195.8-.25,1.3-.125,1.251.049-.021.466-.313.925-.654s1.217-.918,1.7-1.272.911-.674.959-.716c.389-.306-.57.667-3.247,3.282a15.246,15.246,0,0,0-1.245,1.293,2.524,2.524,0,0,0,.654-.32c1.112-.64,1.071-.626,1.495-.514a3.863,3.863,0,0,0,4.512-3.066,4.335,4.335,0,0,0-.1-2.545A10.39,10.39,0,0,0,533.635-511.783Z" transform="translate(-488.678 -108.913)" fill="#e74c3c"/><path d="M214.348-489.673a4.465,4.465,0,0,0-.528,5.34,3.079,3.079,0,0,0,1.787,1.39c.4.118.508.188.6.362a9.455,9.455,0,0,0,.883,1.432c.021-.056-.306-1.335-1.411-5.506a2.828,2.828,0,0,1-.139-.681c.014-.014.049.042.076.132.049.132.82,2,1.112,2.663.049.111.188.445.313.73a4.414,4.414,0,0,0,.271.577c.076.076.466-.862.6-1.46a5.1,5.1,0,0,0-.132-2.475,4.82,4.82,0,0,0-1.919-2.232,5.355,5.355,0,0,0-1.189-.6A1.4,1.4,0,0,0,214.348-489.673Z" transform="translate(-194.621 -129.243)" fill="#e74c3c"/><path d="M494.733-476.774a1.22,1.22,0,0,0-.737.688c-.153.327-.181.647-.042.542a2.929,2.929,0,0,1,.709-.382c-.035.042-.334.264-.647.5-.591.431-.688.556-.32.41a3.566,3.566,0,0,1,.806-.09c.556-.007.619-.021.862-.222a1.518,1.518,0,0,0,.563-1.092l.035-.375-.264-.042A1.713,1.713,0,0,0,494.733-476.774Z" transform="translate(-455.449 -141.454)" fill="#e74c3c"/><path d="M228.952-471.915a1.713,1.713,0,0,1-.209,1.015,6.257,6.257,0,0,1-1.516,1.7,40.71,40.71,0,0,1-4.081,2.656c-1.168.7-2.336,1.418-2.607,1.592a10.141,10.141,0,0,0-4.79,6.132,1.048,1.048,0,0,0-.056.41,2.683,2.683,0,0,0,.348-.542,12.578,12.578,0,0,1,4.22-4.408c.271-.167,1.161-.7,1.981-1.168,3.643-2.086,4.623-2.739,5.638-3.754a3.76,3.76,0,0,0,1.314-2.225,3.859,3.859,0,0,0-.153-1.752C228.959-472.513,228.952-472.5,228.952-471.915Z" transform="translate(-196.968 -145.603)" fill="#e74c3c"/><path d="M301.861-464.378a2.444,2.444,0,0,0-.674,1.495,2.267,2.267,0,0,0,.508,1.62,2.963,2.963,0,0,0,.341.41c.014-.014.083-.556.153-1.2l.125-1.182.07,1.738c.076,1.842.07,1.815.306.9a.751.751,0,0,1,.355-.48,1.535,1.535,0,0,0,.494-.633,1.472,1.472,0,0,0,.188-1.015,2.17,2.17,0,0,0-.751-1.648C302.438-464.927,302.313-464.921,301.861-464.378Z" transform="translate(-276.517 -152.703)" fill="#e74c3c"/><path d="M599.094-462.865c-.035.007-.257.063-.487.111a3.43,3.43,0,0,0-2.426,2.322c-.236.7-.292.966-.174.925.056-.021.806-.445,1.682-.946s1.578-.89,1.578-.883-.229.195-.5.41-.82.626-1.2.925-1.1.848-1.585,1.224c-.8.619-1.022.813-.932.813.021,0,.375-.146.793-.32l.751-.313.438.153a3.076,3.076,0,0,0,2.044-.09,3.74,3.74,0,0,0,2.169-3.358c.035-.765.007-.82-.521-.918A7.047,7.047,0,0,0,599.094-462.865Z" transform="translate(-549.938 -154.466)" fill="#e74c3c"/><path d="M152.8-453.88c-.167.049-.174.07-.16.6a2.2,2.2,0,0,0,1.224,2.114c.431.209,1.37.375,1.37.236a2.971,2.971,0,0,0-.4-.514c-.216-.25-.508-.6-.64-.765-.222-.292-.195-.278.313.174.306.264.793.688,1.078.939l.619.542c.209.195.146,0-.139-.41a1.115,1.115,0,0,1-.278-.939,1.392,1.392,0,0,0-.16-.848,2.441,2.441,0,0,0-1.21-1.057A3.621,3.621,0,0,0,152.8-453.88Z" transform="translate(-138.298 -162.797)" fill="#e74c3c"/><path d="M9.216-447.726a1.434,1.434,0,0,0-.466.348c-.111.167-.1.181.25.549a1.37,1.37,0,0,0,1.251.5c.292-.049.751-.25.751-.327a2.171,2.171,0,0,0-.82-.271c-.063,0-.09-.021-.07-.042a7.868,7.868,0,0,1,1.363.146c.243.056.181-.083-.083-.174a.651.651,0,0,1-.355-.3A1.382,1.382,0,0,0,9.216-447.726Z" transform="translate(-4.36 -168.423)" fill="#e74c3c"/><path d="M398.636-446.644a3.154,3.154,0,0,0-2.4,1.87,2.484,2.484,0,0,0-.306,1.022c.014.021.118-.014.229-.076.473-.257,2.76-1.37,2.7-1.307s-1.015.73-2.5,1.745a7.264,7.264,0,0,0-1.356,1,6.272,6.272,0,0,0,.737-.229l.737-.264.382.174a1.636,1.636,0,0,0,1.022.146,2.1,2.1,0,0,0,1.092-.243,3.411,3.411,0,0,0,1.926-2.99l.035-.64-.306-.076A4.57,4.57,0,0,0,398.636-446.644Z" transform="translate(-363.816 -169.533)" fill="#e74c3c"/><path d="M69.509-426.806c-.132.014-.348.042-.48.063l-.229.035.028.57a2.269,2.269,0,0,0,2.788,2.308c.3-.1.327-.1.813.1a2.236,2.236,0,0,0,.535.181c.035-.035-.229-.25-1.439-1.168-1.105-.841-1.272-.98-.9-.779.132.076.563.32.959.542a2.972,2.972,0,0,0,.758.362,2.8,2.8,0,0,0-.375-1.133,2.284,2.284,0,0,0-.911-.848,3.4,3.4,0,0,0-1.189-.271C69.8-426.841,69.641-426.82,69.509-426.806Z" transform="translate(-60.295 -188.008)" fill="#e74c3c"/><path d="M261.472-419.84c-.146.9-.939,1.613-2.413,2.141a32.268,32.268,0,0,1-5.075,1.168c-3.963.737-4.79.959-6.209,1.669a8.218,8.218,0,0,0-2.378,1.731c-.633.633-1.279,1.46-1.2,1.536a2.607,2.607,0,0,0,.508-.362A12.539,12.539,0,0,1,248.221-414a24.231,24.231,0,0,1,4.7-1.043,37.679,37.679,0,0,0,5.207-1.078c2.155-.709,3.115-1.641,3.372-3.3a2.933,2.933,0,0,0,.049-.6C261.535-420.1,261.5-420.014,261.472-419.84Z" transform="translate(-223.496 -194.328)" fill="#e74c3c"/><path d="M517.238-409.7c-.48.25-.7.4-.647.459a9.863,9.863,0,0,0,1.036.243c.7.139.876.195.584.174-.229-.021-.932-.049-1.564-.07l-1.147-.035.494.181c.445.153.521.209.7.508a1.564,1.564,0,0,0,1.418.688,1.6,1.6,0,0,0,.959-.16c.424-.195,1.05-.765,1.05-.959,0-.167-.709-.834-1.078-1.022a2.058,2.058,0,0,0-.869-.195A1.405,1.405,0,0,0,517.238-409.7Z" transform="translate(-475.938 -203.78)" fill="#e74c3c"/><path d="M4.987-405.873c-.542.209-.987.514-.987.681A2.842,2.842,0,0,0,5.37-403.6a2.112,2.112,0,0,0,2.2-.264c.236-.229.3-.25.779-.285.285-.021.494-.063.466-.09s-.7-.188-1.481-.355c-1.5-.32-1.564-.4-.229-.278a3.407,3.407,0,0,0,.806.014c.09-.09-.751-.834-1.147-1.015A2.318,2.318,0,0,0,4.987-405.873Z" transform="translate(0 -207.356)" fill="#e74c3c"/><path d="M141.251-402.6c-.584.209-.6.236-.48.674a2.035,2.035,0,0,0,1.62,1.342,1.541,1.541,0,0,0,.911-.278c.132-.111.222-.125.563-.09a1.23,1.23,0,0,0,.41.007,7.91,7.91,0,0,0-.939-.4,5.924,5.924,0,0,1-.918-.4,4.943,4.943,0,0,1,1.112.264c.278.153.028-.362-.368-.751A1.823,1.823,0,0,0,141.251-402.6Z" transform="translate(-127.204 -210.459)" fill="#e74c3c"/><path d="M201.625-388.59a2.276,2.276,0,0,0-.125.959,1.8,1.8,0,0,0,.174,1.036,1.667,1.667,0,0,0,1.467,1.015c.292,0,.348.028.6.3s.5.452.5.362c0-.021-.327-.57-.73-1.217-.66-1.078-.9-1.523-.619-1.147a14.5,14.5,0,0,0,1.154,1.356,1.514,1.514,0,0,0,.056-.556,2.148,2.148,0,0,0-1.773-2.267C201.82-388.889,201.757-388.875,201.625-388.59Z" transform="translate(-183.769 -223.374)" fill="#e74c3c"/><path d="M621.694-387.82a2.159,2.159,0,0,0-.577.355c-.32.271-.806.946-.716.98.035.007.508-.076,1.057-.195s1.008-.2,1.015-.188a2.51,2.51,0,0,1-.445.181c-1.161.4-2.419.869-2.475.925-.035.028.188.035.5.007.535-.042.57-.035.772.139a1.556,1.556,0,0,0,1.224.313,2.28,2.28,0,0,0,2.079-1.71l.1-.362-.195-.132A3.119,3.119,0,0,0,621.694-387.82Z" transform="translate(-572.753 -224.22)" fill="#e74c3c"/><path d="M470.983-381.688c-.389.195-.841.57-.772.64a6.1,6.1,0,0,0,.9.1c.466.028.911.063.987.076a11.954,11.954,0,0,1-1.251.111c-1.655.111-1.856.16-1.182.278.431.076.508.118.716.362a1.5,1.5,0,0,0,1.293.563,2.137,2.137,0,0,0,1.856-.973,1.887,1.887,0,0,0,.2-.375c0-.118-.514-.535-.89-.723a1.874,1.874,0,0,0-.952-.222A1.451,1.451,0,0,0,470.983-381.688Z" transform="translate(-432.951 -229.872)" fill="#e74c3c"/><path d="M34.054-368.524a7.776,7.776,0,0,0-2.114.737A5.107,5.107,0,0,0,29-362.753c0,.827.09,1.126.16.5a5.979,5.979,0,0,1,1.543-2.955,5.643,5.643,0,0,1,5.27-1.863,5.582,5.582,0,0,1,2.983,1.349,4.955,4.955,0,0,1,1.523,2.892,7.514,7.514,0,0,1,.118,1.968,7.188,7.188,0,0,0,.028,1.231,8.6,8.6,0,0,0,.6-1.717,5.372,5.372,0,0,0-2.1-5.9,7.192,7.192,0,0,0-2.413-1.175A7.373,7.373,0,0,0,34.054-368.524Z" transform="translate(-23.262 -242.203)" fill="#e74c3c"/><path d="M566.7-368.844c-.167.076-.3.167-.3.2s.222.125.487.188a1.99,1.99,0,0,1,.466.146,4.233,4.233,0,0,1-.772-.083c-.855-.125-1.029-.1-.591.063a.753.753,0,0,1,.445.375,1.269,1.269,0,0,0,1.008.577,1.7,1.7,0,0,0,1.078-.417c.195-.209.195-.216.083-.445a1.457,1.457,0,0,0-.445-.466A1.491,1.491,0,0,0,566.7-368.844Z" transform="translate(-522.705 -241.855)" fill="#e74c3c"/><path d="M285.184-365.593a2.118,2.118,0,0,0-.932.723,1.991,1.991,0,0,1-.257.3.087.087,0,0,0-.021.111,1.985,1.985,0,0,0,.793-.09c1.168-.25,1.14-.236-.466.341-1.258.445-1.794.5-4.971.5a52.966,52.966,0,0,1-7.926-.542,30.175,30.175,0,0,0-4.38-.292,15.358,15.358,0,0,0-2.572.125,13.794,13.794,0,0,0-6.466,2.67,8.546,8.546,0,0,0-3.587,6.021,7.482,7.482,0,0,0,.042,1.981,7.737,7.737,0,0,0,.139-.779,8.625,8.625,0,0,1,3.337-5.638,15.371,15.371,0,0,1,6.918-2.9,23.975,23.975,0,0,1,5.91.076,63.021,63.021,0,0,0,7.161.327,20.979,20.979,0,0,0,5.743-.862l.619-.195.278.16a1.824,1.824,0,0,0,1.536-.007,1.675,1.675,0,0,0,1.071-1.453v-.306l-.4-.16A2.663,2.663,0,0,0,285.184-365.593Z" transform="translate(-232.954 -244.932)" fill="#e74c3c"/><path d="M13.913-355.709a1.229,1.229,0,0,0-.563.6c-.063.188.139.368.528.473a1.053,1.053,0,0,0,1.008-.222c.334-.292.306-.362-.125-.313-.362.035-.362.035.083-.063.82-.188.834-.195.521-.223a.784.784,0,0,1-.431-.167A1.063,1.063,0,0,0,13.913-355.709Z" transform="translate(-8.689 -254.113)" fill="#e74c3c"/><path d="M198.949-327.664a13.719,13.719,0,0,0-5.235,3.094,11.549,11.549,0,0,0-2.579,5.346,13.859,13.859,0,0,0-.035,3.177c.7,5.027,5.027,8.753,10.832,9.344a11.847,11.847,0,0,0,9.136-2.774,10.329,10.329,0,0,0,1.349-1.71,9.991,9.991,0,0,0,1.321-4.158l.042-.549-.167.049c-.466.139-.612.375-.82,1.335a6.355,6.355,0,0,1-.306,1.008,4.423,4.423,0,0,1-2.329,2.2c-.348.139-.362.139-.3.014a5.046,5.046,0,0,1,.806-.6c.841-.549,1.147-.911,1.147-1.37v-.271l-.243.216a3.5,3.5,0,0,1-1.349.674,5.294,5.294,0,0,0-2.579,1.738,5.565,5.565,0,0,1-2.086,1.53,10.72,10.72,0,0,1-3.587-.028,8.591,8.591,0,0,1-4.484-2.308,9.892,9.892,0,0,1-2.614-5.18,13.477,13.477,0,0,1,.042-3.991,10.948,10.948,0,0,1,4.137-6.514,4.6,4.6,0,0,0,.626-.508C199.637-327.893,199.31-327.789,198.949-327.664Z" transform="translate(-174.022 -280.073)" fill="#e74c3c"/><path d="M300.044-250.775a2.479,2.479,0,0,0-1.648,2.169l-.014.382.667.021.667.021.035-.341a1.045,1.045,0,0,1,.647-.918,1,1,0,0,1,.98-.007,1.142,1.142,0,0,1,.654,1.342c-.07.257-.348.563-2.058,2.28-1.085,1.092-1.975,2.009-1.975,2.037s1.384.042,3.08.035l3.073-.021.021-.6.021-.612L302.651-245l-1.536-.021.952-.973c1.2-1.231,1.321-1.46,1.321-2.4a1.872,1.872,0,0,0-.209-1.071,2.678,2.678,0,0,0-1.217-1.217A2.977,2.977,0,0,0,300.044-250.775Z" transform="translate(-273.56 -351.726)" fill="#e74c3c"/><path d="M371.031-216.986c-.257,1.085-.737,3.3-.709,3.337a2.113,2.113,0,0,0,.674.056c.633,0,.647-.007.793-.209a1.551,1.551,0,0,1,1.224-.584,1.6,1.6,0,0,1,1.571,1.981,1.738,1.738,0,0,1-1.168,1.175,1.6,1.6,0,0,1-1.6-.514l-.216-.25h-.667c-.661,0-.667,0-.626.153a2.888,2.888,0,0,0,3.643,1.787,2.918,2.918,0,0,0,1.745-3.852,3.3,3.3,0,0,0-1.564-1.557,3.436,3.436,0,0,0-1.856-.125l-.334.1v-.4h3.268V-217h-2.086C371.976-217,371.038-216.993,371.031-216.986Z" transform="translate(-340.827 -383.263)" fill="#e74c3c"/><path d="M178.243-177.878a9.883,9.883,0,0,0-.243,2.183,7.488,7.488,0,0,0,1.439,4.658A9.842,9.842,0,0,0,184-167.22a19.325,19.325,0,0,0,6.167,1.328c.264.028.424.021.382-.021a11.068,11.068,0,0,0-1.078-.362c-4.373-1.293-7.279-2.955-8.851-5.048a12.5,12.5,0,0,1-2.1-5.625c-.1-.535-.2-.987-.216-1S178.264-177.934,178.243-177.878Z" transform="translate(-161.903 -419.597)" fill="#e74c3c"/><path d="M69.037-156.638a12.21,12.21,0,0,0-2.322,5.374c-.424,1.988-.667,2.545-1.363,3.094a5.391,5.391,0,0,1-3.052.806l-.8.056.375.083a12.681,12.681,0,0,0,4.373.195,4.945,4.945,0,0,0,2.656-1.564c1-1.189,1.516-1.613,2.072-1.7.16-.021.292-.07.292-.1a.061.061,0,0,0-.056-.063,6.376,6.376,0,0,1-1.238-1.112,5.234,5.234,0,0,1-.9-1.71,6.342,6.342,0,0,1,.09-2.934,6.106,6.106,0,0,0,.188-.779A3.84,3.84,0,0,0,69.037-156.638Z" transform="translate(-53.502 -439.091)" fill="#e74c3c"/><path d="M28.16-111.638c-.195.2-.716.793-1.154,1.307-1.4,1.634-2.107,2.211-3.143,2.545a5.86,5.86,0,0,1-3.414-.146c-.313-.1.375.4.9.667a5.723,5.723,0,0,0,5.221-.174c.619-.3.64-.313.848-.73a7.869,7.869,0,0,0,.57-2.2,6.207,6.207,0,0,1,.348-1.2,4.34,4.34,0,0,0,.188-.431C28.514-112,28.354-111.833,28.16-111.638Z" transform="translate(-15.233 -480.963)" fill="#e74c3c"/><path d="M152.893-53.8a1.119,1.119,0,0,1-.424.1,1.234,1.234,0,0,0-1.168.834,4.431,4.431,0,0,1-1.9,1.641,1.409,1.409,0,0,0-.4.25,6.657,6.657,0,0,0,2.121-.083,6.5,6.5,0,0,1,2.621,0,8.411,8.411,0,0,0,2.767.139,7.293,7.293,0,0,0,.925-.118c.035-.021-.229-.153-.591-.292a9.308,9.308,0,0,1-3.2-2.051,5.347,5.347,0,0,0-.549-.521C153.081-53.9,152.991-53.853,152.893-53.8Z" transform="translate(-134.919 -535.021)" fill="#e74c3c"/></g></svg>