<?xml version="1.0" encoding="utf-8"?>
<!-- Generator: Adobe Illustrator 16.0.0, SVG Export Plug-In . SVG Version: 6.00 Build 0)  -->
<!DOCTYPE svg PUBLIC "-//W3C//DTD SVG 1.1//EN" "http://www.w3.org/Graphics/SVG/1.1/DTD/svg11.dtd">
<svg version="1.1" id="Layer_1" xmlns="http://www.w3.org/2000/svg" xmlns:xlink="http://www.w3.org/1999/xlink" x="0px" y="0px"
	 width="50px" height="50px" viewBox="0 0 50 50" enable-background="new 0 0 50 50" xml:space="preserve">
<path fill="#797A7C" d="M45.798,18.772c0-4.809,0-8.316,0-8.316c0-0.003-2.487-0.003-6.244-0.004v2.07
	c0,1.154-0.924,2.087-2.082,2.087c-1.149,0-2.081-0.933-2.081-2.087v-2.071c-6.357-0.001-14.457-0.002-20.813-0.002v2.073
	c0,1.154-0.923,2.087-2.08,2.087c-1.15,0-2.082-0.933-2.082-2.087v-2.074c-3.752,0-6.233,0-6.233,0
	c-0.002,0-0.004,3.513-0.005,8.325H45.798z M45.795,22.934H4.176C4.174,33.115,4.172,45.819,4.172,45.819
	c0,0.005,41.616,0.01,41.616,0.01C45.79,45.829,45.793,33.117,45.795,22.934z M39.554,6.284h6.234c2.303,0,4.17,1.864,4.17,4.172
	v35.363c0,2.305-1.865,4.17-4.17,4.17H4.183c-2.305,0-4.173-1.862-4.173-4.17V10.456c0-2.304,1.867-4.172,4.173-4.172h6.233V2.128
	c0-1.152,0.923-2.087,2.082-2.087c1.149,0,2.08,0.934,2.08,2.087v4.156h20.813V2.128c0-1.152,0.924-2.087,2.081-2.087
	c1.151,0,2.082,0.934,2.082,2.087V6.284z"/>
</svg>
