<?xml version="1.0" encoding="utf-8"?>
<!-- Generator: Adobe Illustrator 22.1.0, SVG Export Plug-In . SVG Version: 6.00 Build 0)  -->
<svg version="1.1" id="Capa_1" xmlns="http://www.w3.org/2000/svg" xmlns:xlink="http://www.w3.org/1999/xlink" x="0px" y="0px"
	 viewBox="0 0 218 218" style="enable-background:new 0 0 218 218;" xml:space="preserve">
<style type="text/css">
	.st0{fill:#7A7B7D;}
</style>
<g>
	<path class="st0" d="M199.4,0H35.5C31.4,0,28,3.4,28,7.5v43.2h-9.4c-4.1,0-7.5,3.4-7.5,7.5s3.4,7.5,7.5,7.5H28v35.8h-9.4
		c-4.1,0-7.5,3.4-7.5,7.5s3.4,7.5,7.5,7.5H28v35.7h-9.4c-4.1,0-7.5,3.4-7.5,7.5s3.4,7.5,7.5,7.5H28v43.2c0,4.1,3.4,7.5,7.5,7.5
		h163.9c4.1,0,7.5-3.4,7.5-7.5V7.5C206.9,3.4,203.5,0,199.4,0z M191.9,203H43v-35.7h9.4c4.1,0,7.5-3.4,7.5-7.5s-3.4-7.5-7.5-7.5H43
		v-35.7h9.4c4.1,0,7.5-3.4,7.5-7.5s-3.4-7.5-7.5-7.5H43V65.7h9.4c4.1,0,7.5-3.4,7.5-7.5s-3.4-7.5-7.5-7.5H43V15h148.9L191.9,203
		L191.9,203z"/>
	<path class="st0" d="M122.8,112.4c17,0,30.8-13.8,30.8-30.8c0-17-13.8-30.8-30.8-30.8c-17,0-30.8,13.8-30.8,30.8
		C92,98.6,105.8,112.4,122.8,112.4z M122.8,65.7c8.7,0,15.8,7.1,15.8,15.8c0,8.7-7.1,15.8-15.8,15.8c-8.7,0-15.8-7.1-15.8-15.8
		C107,72.9,114.1,65.7,122.8,65.7z"/>
	<path class="st0" d="M88.5,168.5c4.1,0,7.5-3.4,7.5-7.5v-13c0-8.3,6.8-15.1,15.1-15.1h23.7c8.3,0,15.1,6.8,15.1,15.1v13
		c0,4.1,3.4,7.5,7.5,7.5c4.1,0,7.5-3.4,7.5-7.5v-13c0-16.6-13.5-30.1-30.1-30.1h-23.7C94.5,118,81,131.5,81,148.1v13
		C81,165.2,84.3,168.5,88.5,168.5z"/>
</g>
</svg>
