<?xml version="1.0" encoding="utf-8"?>
<!-- Generator: Adobe Illustrator 23.0.3, SVG Export Plug-In . SVG Version: 6.00 Build 0)  -->
<svg version="1.1" id="Layer_1" xmlns="http://www.w3.org/2000/svg" xmlns:xlink="http://www.w3.org/1999/xlink" x="0px" y="0px"
	 viewBox="0 0 50 50" style="enable-background:new 0 0 50 50;" xml:space="preserve">
<style type="text/css">
	.st0{fill:#E74C3C;}
</style>
<g>
	<path class="st0" d="M3.4,49.3h4c0.7,0,1.3-0.3,1.8-0.8h20.2c1.2,0,2.3-0.3,3.3-0.9l15.1-9.2c0.7-0.4,1.2-1.2,1.4-2
		c0.2-0.8,0-1.6-0.5-2.3c0,0,0,0,0-0.1c-0.8-1-2.1-1.5-3.4-1l-14.9,5c-0.2,0.1-0.5,0.1-0.8,0.1h-0.5c0.4-1,0.3-2.2-0.3-3.2l-0.1-0.1
		c-0.9-1.5-2.4-2.3-4.1-2.3h-4.2c-1.5,0-2.9-0.5-4.1-1.4c-1.4-1.2-3.2-1.8-5.1-1.8H9.7c-0.3-1-1.2-1.6-2.3-1.6h-4
		C2.1,27.6,1,28.7,1,30v16.9C1,48.3,2.1,49.3,3.4,49.3z M15.4,32.2c1.4,1.2,3.2,1.8,5.1,1.8h4.2c1.1,0,2.2,0.6,2.8,1.6l0.1,0.1
		c0.4,0.7,0.4,1.7-0.1,2.3h-4.9c-1.6,0-3.1,0.5-4.5,1.4l-0.6,0.4c-0.4,0.2-0.5,0.7-0.2,1.1c0.2,0.4,0.7,0.5,1.1,0.2l0.6-0.4
		c1.1-0.7,2.3-1.1,3.6-1.1h7.2c0.4,0,0.9-0.1,1.3-0.2l14.9-5c0.5-0.2,1.2,0,1.5,0.4c0,0,0,0,0,0.1c0.2,0.3,0.3,0.7,0.3,1.1
		c-0.1,0.4-0.3,0.7-0.6,0.9l-15.1,9.2c-0.8,0.5-1.6,0.7-2.5,0.7H9.9V30.8h1.4C12.8,30.8,14.2,31.3,15.4,32.2z M2.6,30
		c0-0.4,0.4-0.8,0.8-0.8h4c0.4,0,0.8,0.4,0.8,0.8v16.9c0,0.4-0.4,0.8-0.8,0.8h-4c-0.4,0-0.8-0.4-0.8-0.8V30z"/>
	<path class="st0" d="M5,41.3c0.4,0,0.8-0.4,0.8-0.8v-5.6C5.8,34.4,5.5,34,5,34c-0.4,0-0.8,0.4-0.8,0.8v5.6
		C4.2,40.9,4.6,41.3,5,41.3z"/>
	<path class="st0" d="M5.8,31.6c0,0.4-0.4,0.8-0.8,0.8c-0.4,0-0.8-0.4-0.8-0.8c0-0.4,0.4-0.8,0.8-0.8C5.5,30.8,5.8,31.2,5.8,31.6z"
		/>
	<g>
		<path class="st0" d="M27.2,17.6c0,0.4-0.1,0.7-0.2,1c-0.1,0.3-0.3,0.6-0.6,0.8c-0.2,0.2-0.5,0.4-0.9,0.5c-0.3,0.1-0.7,0.2-1.2,0.2
			c-0.4,0-0.8-0.1-1.2-0.2c-0.4-0.2-0.7-0.4-0.9-0.7c-0.2-0.3-0.4-0.6-0.6-1.1c-0.1-0.4-0.2-0.9-0.2-1.4v-0.5c0-0.5,0.1-1,0.2-1.4
			c0.1-0.4,0.3-0.8,0.6-1.1c0.3-0.3,0.6-0.5,0.9-0.7c0.4-0.2,0.8-0.2,1.2-0.2c0.4,0,0.8,0.1,1.2,0.2c0.3,0.1,0.6,0.3,0.9,0.5
			c0.2,0.2,0.4,0.5,0.5,0.8c0.1,0.3,0.2,0.6,0.2,1h-1.4c0-0.2-0.1-0.4-0.1-0.6c-0.1-0.2-0.1-0.3-0.2-0.4c-0.1-0.1-0.2-0.2-0.4-0.2
			C24.9,14,24.7,14,24.4,14c-0.5,0-0.8,0.2-1.1,0.5c-0.2,0.4-0.4,0.9-0.4,1.6v0.5c0,0.4,0,0.7,0.1,0.9c0.1,0.3,0.1,0.5,0.2,0.7
			c0.1,0.2,0.3,0.3,0.4,0.4c0.2,0.1,0.4,0.1,0.7,0.1c0.2,0,0.4,0,0.6-0.1c0.2-0.1,0.3-0.1,0.4-0.2c0.1-0.1,0.2-0.2,0.3-0.4
			c0.1-0.2,0.1-0.3,0.1-0.5H27.2z"/>
		<path class="st0" d="M31.8,18.1c0-0.1,0-0.2-0.1-0.3c0-0.1-0.1-0.2-0.2-0.3c-0.1-0.1-0.2-0.2-0.4-0.2c-0.2-0.1-0.4-0.2-0.7-0.3
			c-0.3-0.1-0.6-0.2-0.9-0.3c-0.3-0.1-0.5-0.3-0.7-0.5c-0.2-0.2-0.4-0.4-0.5-0.6c-0.1-0.2-0.2-0.5-0.2-0.8c0-0.3,0.1-0.6,0.2-0.8
			c0.1-0.2,0.3-0.4,0.5-0.6c0.2-0.2,0.5-0.3,0.8-0.4c0.3-0.1,0.7-0.1,1-0.1c0.4,0,0.7,0.1,1.1,0.2c0.3,0.1,0.6,0.3,0.8,0.4
			c0.2,0.2,0.4,0.4,0.5,0.7c0.1,0.3,0.2,0.6,0.2,0.9h-1.4c0-0.1,0-0.3-0.1-0.4c0-0.1-0.1-0.2-0.2-0.3c-0.1-0.1-0.2-0.2-0.4-0.2
			C31,14,30.8,14,30.6,14c-0.2,0-0.4,0-0.5,0.1c-0.1,0-0.3,0.1-0.3,0.2c-0.1,0.1-0.2,0.2-0.2,0.3c0,0.1-0.1,0.2-0.1,0.3
			c0,0.2,0.1,0.4,0.4,0.6c0.2,0.2,0.6,0.3,1,0.4c0.4,0.1,0.7,0.2,1,0.4c0.3,0.1,0.5,0.3,0.7,0.5c0.2,0.2,0.3,0.4,0.4,0.6
			c0.1,0.2,0.1,0.5,0.1,0.8c0,0.3-0.1,0.6-0.2,0.8s-0.3,0.4-0.5,0.6c-0.2,0.2-0.5,0.3-0.8,0.4c-0.3,0.1-0.7,0.1-1,0.1
			c-0.2,0-0.5,0-0.7-0.1c-0.2,0-0.4-0.1-0.7-0.2c-0.2-0.1-0.4-0.2-0.6-0.3c-0.2-0.1-0.3-0.3-0.5-0.4c-0.1-0.2-0.2-0.4-0.3-0.6
			c-0.1-0.2-0.1-0.5-0.1-0.7h1.4c0,0.2,0,0.4,0.1,0.5c0.1,0.1,0.2,0.3,0.3,0.4c0.1,0.1,0.3,0.2,0.4,0.2c0.2,0,0.4,0.1,0.6,0.1
			c0.2,0,0.3,0,0.5-0.1c0.1,0,0.3-0.1,0.3-0.2c0.1-0.1,0.2-0.2,0.2-0.3C31.8,18.3,31.8,18.2,31.8,18.1z"/>
		<path class="st0" d="M36.8,17.3h-1.1v2.6h-1.4v-7h2.6c0.4,0,0.8,0,1.1,0.1s0.6,0.2,0.8,0.4c0.2,0.2,0.4,0.4,0.5,0.7
			c0.1,0.3,0.2,0.6,0.2,0.9c0,0.3,0,0.5-0.1,0.7c-0.1,0.2-0.1,0.4-0.2,0.5c-0.1,0.2-0.2,0.3-0.4,0.4c-0.2,0.1-0.3,0.2-0.5,0.3
			l1.5,2.9v0.1h-1.5L36.8,17.3z M35.6,16.2h1.2c0.2,0,0.4,0,0.5-0.1c0.1,0,0.3-0.1,0.4-0.2c0.1-0.1,0.2-0.2,0.2-0.3
			c0-0.1,0.1-0.3,0.1-0.4c0-0.3-0.1-0.6-0.3-0.8c-0.2-0.2-0.5-0.3-0.9-0.3h-1.2V16.2z"/>
	</g>
	<path class="st0" d="M30.8,1c-8.4,0-15.2,6.8-15.3,15.2c-0.1,8.4,6.6,15.3,15,15.4c0,0,0,0,0,0h0c0.1,0,0.1,0,0.2,0
		c0.1,0,0.1,0,0.2,0h0c0,0,0,0,0,0c8.4-0.1,15.1-7,15-15.4C46,7.8,39.2,1,30.8,1z M41.2,7.5h-4.4c-0.8-1.7-1.9-3.2-3.3-4.6
		C36.5,3.5,39.2,5.1,41.2,7.5z M31.6,3.3C33,4.5,34.1,5.9,35,7.5h-3.4V3.3z M30,3.3v4.2h-3.4C27.5,5.9,28.6,4.5,30,3.3z M28.1,2.9
		c-1.3,1.3-2.4,2.9-3.3,4.6h-4.4C22.4,5.1,25.1,3.5,28.1,2.9z M20.4,25.2h4.4c0.8,1.7,1.9,3.2,3.3,4.6
		C25.1,29.1,22.4,27.5,20.4,25.2z M30,29.3c-1.4-1.2-2.5-2.6-3.4-4.2H30V29.3z M31.6,29.3v-4.2H35C34.1,26.7,33,28.2,31.6,29.3z
		 M33.5,29.7c1.3-1.3,2.4-2.9,3.3-4.6h4.4C39.2,27.5,36.5,29.1,33.5,29.7z M42.4,23.6h-4.9c0.2-0.6,0.4-1.2,0.6-1.9h-1.7
		c-0.2,0.6-0.4,1.3-0.7,1.9h-4.2v-1.9H30v1.9h-4.2c-0.3-0.6-0.5-1.2-0.7-1.9h-1.7c0.2,0.6,0.4,1.3,0.6,1.9h-4.9
		c-1.2-1.9-1.9-4.2-2.1-6.4h2.1v-1.6h-2.1c0.1-2.3,0.8-4.5,2.1-6.4h4.9c-0.2,0.6-0.5,1.3-0.6,1.9h1.7c0.2-0.7,0.4-1.3,0.7-1.9H30V11
		h1.6V9.1h4.2c0.3,0.6,0.5,1.3,0.7,1.9h1.7c-0.2-0.7-0.4-1.3-0.6-1.9h4.9c1.2,1.9,1.9,4.2,2.1,6.4h0h-2.2v1.6h2.2
		C44.3,19.4,43.6,21.6,42.4,23.6z"/>
</g>
</svg>
