<?xml version="1.0" encoding="utf-8"?>
<!-- Generator: Adobe Illustrator 16.0.0, SVG Export Plug-In . SVG Version: 6.00 Build 0)  -->
<!DOCTYPE svg PUBLIC "-//W3C//DTD SVG 1.1//EN" "http://www.w3.org/Graphics/SVG/1.1/DTD/svg11.dtd">
<svg version="1.1" id="Layer_1" xmlns="http://www.w3.org/2000/svg" xmlns:xlink="http://www.w3.org/1999/xlink" x="0px" y="0px"
	 width="50px" height="50px" viewBox="0 0 50 50" enable-background="new 0 0 50 50" xml:space="preserve">
<path fill="#E74C3C" d="M24.767,0c-0.974,0.011-1.756,0.809-1.745,1.784c0,0.007,0,0.013,0,0.02v9.419
	c-0.013,0.976,0.765,1.778,1.738,1.793c0.974,0.013,1.773-0.767,1.789-1.742c0-0.018,0-0.033,0-0.051V1.804
	C26.568,0.829,25.795,0.02,24.822,0C24.804,0,24.785,0,24.767,0z M10.476,9.439c-0.971,0.104-1.67,0.976-1.566,1.945
	c0.042,0.406,0.226,0.787,0.519,1.072l4.702,4.711c0.642,0.736,1.756,0.811,2.49,0.169s0.809-1.758,0.167-2.492
	c-0.048-0.057-0.101-0.112-0.158-0.161l-4.703-4.711C11.55,9.58,11.014,9.385,10.476,9.439z M38.693,9.439
	c-0.399,0.053-0.769,0.242-1.048,0.534l-4.704,4.711c-0.728,0.646-0.796,1.762-0.149,2.494c0.646,0.729,1.762,0.797,2.491,0.149
	c0.055-0.051,0.107-0.104,0.158-0.161l4.702-4.711c0.699-0.681,0.712-1.8,0.031-2.499C39.788,9.563,39.24,9.372,38.693,9.439z
	 M24.785,18.879c-6.823,0-12.345,5.634-12.345,12.531v6.311h-2.351c-0.062-0.002-0.123-0.002-0.185,0
	c-0.901,0.095-1.584,0.859-1.58,1.767v6.479H4.798c-0.062-0.003-0.123-0.003-0.184,0c-0.974,0.05-1.723,0.883-1.672,1.858
	c0.05,0.976,0.881,1.725,1.855,1.675h39.976c0.974,0.013,1.773-0.768,1.789-1.743c0.013-0.976-0.765-1.777-1.738-1.79
	c-0.018,0-0.035,0-0.051,0h-3.526v-6.479c0-0.976-0.791-1.767-1.765-1.767h-2.352V31.41C37.131,24.513,31.609,18.879,24.785,18.879z
	 M24.785,22.413c4.902,0,8.82,3.966,8.82,8.998v6.311H15.967V31.41C15.967,26.379,19.885,22.413,24.785,22.413z M1.674,23.59
	c-0.973,0.05-1.723,0.883-1.672,1.859c0.051,0.976,0.882,1.725,1.855,1.674h9.407c0.973,0.014,1.773-0.767,1.789-1.742
	c0.013-0.976-0.765-1.777-1.738-1.791c-0.018,0-0.035,0-0.05,0H1.858C1.797,23.586,1.736,23.586,1.674,23.59z M38.122,23.59
	c-0.974,0.05-1.723,0.883-1.67,1.859c0.049,0.976,0.879,1.725,1.854,1.674h9.404c0.976,0.014,1.775-0.767,1.789-1.742
	c0.016-0.976-0.765-1.777-1.736-1.791c-0.018,0-0.035,0-0.053,0h-9.404C38.245,23.586,38.184,23.586,38.122,23.59z M24.785,24.179
	c-3.562,0-7.053,2.659-7.053,6.478c-0.013,0.976,0.765,1.777,1.738,1.79c0.974,0.014,1.775-0.767,1.789-1.742
	c0.002-0.016,0.002-0.033,0-0.048c0-1.42,1.833-2.944,3.527-2.944c0.976,0.013,1.775-0.768,1.789-1.743
	c0.013-0.976-0.765-1.777-1.738-1.791C24.82,24.179,24.802,24.179,24.785,24.179z M11.851,41.255h25.867v4.711H11.851V41.255z"/>
</svg>
