<?xml version="1.0" encoding="utf-8"?>
<!-- Generator: Adobe Illustrator 22.1.0, SVG Export Plug-In . SVG Version: 6.00 Build 0)  -->
<svg version="1.1" id="Layer_1" xmlns="http://www.w3.org/2000/svg" xmlns:xlink="http://www.w3.org/1999/xlink" x="0px" y="0px"
	 viewBox="0 0 512 512" style="enable-background:new 0 0 512 512;" xml:space="preserve">
<style type="text/css">
	.st0{fill:#797A7C;}
</style>
<g>
	<g>
		<path class="st0" d="M446.5,139.5L312.9,5.9c-3-3-7.2-4.9-11.8-4.9H67.3c-9.2,0-16.7,7.5-16.7,16.7v478.6
			c0,9.2,7.5,16.7,16.7,16.7h367.3c9.2,0,16.7-7.5,16.7-16.7v-345C451.3,147,449.7,142.7,446.5,139.5z M317.8,58l38.3,38.3
			l38.3,38.3h-76.6L317.8,58L317.8,58z M418,479.6H84V34.4h200.3v116.9c0,9.2,7.5,16.7,16.7,16.7h117V479.6L418,479.6z"/>
	</g>
</g>
<g>
	<path class="st0" d="M128.1,280.3h-19.3V208h42.8v15.7h-23.5v13.8h21.7v15.7h-21.7V280.3z"/>
	<path class="st0" d="M231.2,244c0,12.2-3,21.4-9,27.8c-6,6.3-14.7,9.5-26.2,9.5c-11.4,0-20.1-3.2-26.1-9.6
		c-6.1-6.4-9.1-15.6-9.1-27.8c0-12,3-21.2,9-27.6c6-6.4,14.8-9.5,26.3-9.5c11.5,0,20.2,3.2,26.2,9.5
		C228.2,222.6,231.2,231.8,231.2,244z M181.4,244c0,14,4.9,21,14.6,21c4.9,0,8.6-1.7,11-5.1c2.4-3.4,3.6-8.7,3.6-15.9
		c0-7.2-1.2-12.6-3.6-16c-2.4-3.4-6-5.2-10.9-5.2C186.3,222.9,181.4,229.9,181.4,244z"/>
	<path class="st0" d="M263.8,254v26.3h-19.5V208h23.7c19.7,0,29.5,7.1,29.5,21.4c0,8.4-4.1,14.9-12.3,19.5l21.1,31.5h-22.2
		L268.7,254H263.8z M263.8,239.3h3.7c6.8,0,10.2-3,10.2-9.1c0-5-3.3-7.5-10-7.5h-3.9V239.3z"/>
	<path class="st0" d="M344.4,280.3l-14.8-52.1h-0.4c0.7,8.9,1,15.8,1,20.7v31.4h-17.3V208h26l15.1,51.4h0.4l14.8-51.4h26.1v72.4h-18
		v-31.7c0-1.6,0-3.5,0.1-5.5c0-2,0.3-6.9,0.7-14.8h-0.4l-14.6,52H344.4z"/>
</g>
<g>
	<path class="st0" d="M218.9,438h-31.4v-60.7c0-7.4,0.2-14.1,0.5-20.2c-1.9,2.4-4.3,4.8-7.2,7.4l-13,10.7l-16.1-19.8l39.4-32.1h27.9
		V438z"/>
	<path class="st0" d="M244.6,389.5c0-16,2.3-29,6.9-38.9c4.6-9.9,11.3-17.2,20.2-21.9c8.9-4.7,19.9-7.1,33-7.1
		c4.7,0,10.1,0.4,16.3,1.3v24.2c-5.2-1-10.9-1.5-17-1.5c-10.4,0-18.1,2.3-23.1,6.8c-5.1,4.5-7.8,12-8.3,22.3h0.9
		c4.7-8.9,12.3-13.3,22.7-13.3c10.2,0,18.1,3.3,23.7,9.8c5.6,6.6,8.4,15.7,8.4,27.4c0,12.6-3.6,22.5-10.7,29.8
		c-7.1,7.3-17,10.9-29.8,10.9c-13.5,0-24.1-4.4-31.8-13.2C248.4,417.6,244.6,405.3,244.6,389.5z M287.1,415c3.3,0,6-1.2,8-3.7
		c2.1-2.5,3.1-6.4,3.1-11.9c0-9.3-3.6-14-10.8-14c-3.6,0-6.4,1.2-8.7,3.6c-2.2,2.4-3.3,5.3-3.3,8.8c0,5,1.1,9.1,3.2,12.4
		C280.8,413.4,283.6,415,287.1,415z"/>
</g>
</svg>
