<?xml version="1.0" encoding="utf-8"?>
<!-- Generator: Adobe Illustrator 16.0.0, SVG Export Plug-In . SVG Version: 6.00 Build 0)  -->
<!DOCTYPE svg PUBLIC "-//W3C//DTD SVG 1.1//EN" "http://www.w3.org/Graphics/SVG/1.1/DTD/svg11.dtd">
<svg version="1.1" id="Layer_1" xmlns="http://www.w3.org/2000/svg" xmlns:xlink="http://www.w3.org/1999/xlink" x="0px" y="0px"
	 width="50px" height="50px" viewBox="0 0 50 50" enable-background="new 0 0 50 50" xml:space="preserve">
<path fill="#E74C3C" d="M48.147,1.602c-2.421-2.419-6.483-2.519-9.004,0l-9.045,9.046L11.867,4.29
	c-0.695-0.24-1.467-0.06-1.984,0.463l-5.401,5.403c-0.741,0.751-0.732,1.96,0.019,2.702c0.116,0.113,0.248,0.213,0.389,0.295
	l14.954,8.652l-8.539,8.54l-6.935,0.408c-0.467,0.028-0.908,0.229-1.239,0.563l-2.7,2.7c-0.743,0.75-0.738,1.958,0.012,2.702
	c0.123,0.121,0.259,0.226,0.41,0.31l7.639,4.234l4.234,7.639c0.516,0.921,1.681,1.248,2.601,0.732
	c0.15-0.087,0.288-0.188,0.41-0.312l2.701-2.699c0.333-0.33,0.533-0.771,0.563-1.239l0.408-6.934l8.54-8.54l8.651,14.953
	c0.525,0.916,1.694,1.229,2.608,0.705c0.143-0.085,0.27-0.181,0.388-0.297l5.404-5.4c0.523-0.518,0.702-1.29,0.462-1.985
	l-6.358-18.233l9.046-9.046C50.667,8.088,50.568,4.023,48.147,1.602L48.147,1.602z M45.448,4.304c0.945,0.946,1.027,2.573,0,3.602
	l-9.905,9.904c-0.514,0.517-0.688,1.281-0.45,1.969l6.358,18.233l-2.799,2.8l-8.651-14.955c-0.525-0.914-1.694-1.229-2.61-0.703
	c-0.146,0.085-0.281,0.188-0.402,0.309L16.186,36.269c-0.324,0.327-0.52,0.762-0.548,1.224l-0.408,6.935l-0.393,0.394l-3.279-5.894
	c-0.172-0.307-0.423-0.561-0.731-0.731l-5.894-3.278l0.395-0.395l6.935-0.408c0.461-0.028,0.896-0.224,1.224-0.548l10.804-10.804
	c0.749-0.744,0.753-1.953,0.009-2.703c-0.12-0.121-0.255-0.224-0.402-0.309L8.941,11.098L11.74,8.3l18.233,6.359
	c0.688,0.237,1.451,0.062,1.969-0.451l9.904-9.904C42.873,3.275,44.499,3.357,45.448,4.304L45.448,4.304z"/>
</svg>
