<?xml version="1.0" encoding="utf-8"?>
<!-- Generator: Adobe Illustrator 16.0.0, SVG Export Plug-In . SVG Version: 6.00 Build 0)  -->
<!DOCTYPE svg PUBLIC "-//W3C//DTD SVG 1.1//EN" "http://www.w3.org/Graphics/SVG/1.1/DTD/svg11.dtd">
<svg version="1.1" id="Layer_1" xmlns="http://www.w3.org/2000/svg" xmlns:xlink="http://www.w3.org/1999/xlink" x="0px" y="0px"
	 width="50px" height="50px" viewBox="0 0 50 50" enable-background="new 0 0 50 50" xml:space="preserve">
<path fill="#797A7C" d="M48.979,21.344L26.161,3.02c-0.685-0.521-1.633-0.521-2.319,0L1.024,21.344
	c-0.79,0.625-1.053,1.667-0.737,2.604c0.316,0.938,1.211,1.561,2.213,1.561h5.27v19.521c0,1.303,1.055,2.342,2.372,2.342h10.118
	c1.002,0,1.844-0.831,1.844-1.819V34.881H27.9v10.671c0,0.988,0.844,1.819,1.844,1.819h10.119c1.318,0,2.371-1.039,2.371-2.342
	V25.508h5.271c1.002,0,1.895-0.623,2.211-1.561C50.085,23.011,49.77,21.969,48.979,21.344z M40.39,21.865
	c-1,0-1.845,0.833-1.845,1.822v20.042h-6.956V33.057c0-0.988-0.844-1.822-1.845-1.822h-9.485c-1.001,0-1.844,0.834-1.844,1.822
	v10.672h-6.956V23.687c0-0.989-0.843-1.822-1.844-1.822H6.189L25.002,6.769l18.813,15.096H40.39z"/>
</svg>
