<?xml version="1.0" encoding="utf-8"?>
<!-- Generator: Adobe Illustrator 16.0.0, SVG Export Plug-In . SVG Version: 6.00 Build 0)  -->
<!DOCTYPE svg PUBLIC "-//W3C//DTD SVG 1.1//EN" "http://www.w3.org/Graphics/SVG/1.1/DTD/svg11.dtd">
<svg version="1.1" id="Layer_1" xmlns="http://www.w3.org/2000/svg" xmlns:xlink="http://www.w3.org/1999/xlink" x="0px" y="0px"
	 width="50px" height="50px" viewBox="0 0 50 50" enable-background="new 0 0 50 50" xml:space="preserve">
<g>
	<g>
		<path fill="#E74C3C" d="M37.852,16.725V5.97c0-0.778-0.61-1.408-1.363-1.408H13.557c-0.753,0-1.363,0.63-1.363,1.408v10.754H0.045
			v28.713H50V16.725H37.852z M12.194,37.269H2.771v-17.73h9.423V37.269z M35.126,42.624h-6.232v-8.753h-7.743v8.753h-6.231V7.376
			h20.207V42.624z M47.275,37.269h-9.424v-17.73h9.424V37.269z M22.335,25.59h5.375v-4.22h4.089v-5.55H27.71V11.6h-5.375v4.22
			h-4.088v5.55h4.088V25.59z"/>
	</g>
</g>
</svg>
