<?xml version="1.0" encoding="utf-8"?>
<!-- Generator: Adobe Illustrator 22.1.0, SVG Export Plug-In . SVG Version: 6.00 Build 0)  -->
<svg version="1.1" id="Layer_1" xmlns="http://www.w3.org/2000/svg" xmlns:xlink="http://www.w3.org/1999/xlink" x="0px" y="0px"
	 viewBox="0 0 512 512" style="enable-background:new 0 0 512 512;" xml:space="preserve">
<style type="text/css">
	.st0{fill:#E74C3C;}
</style>
<g>
	<g>
		<path class="st0" d="M451.5,138.5L317.9,4.9c-3-3-7.2-4.9-11.8-4.9H72.3c-9.2,0-16.7,7.5-16.7,16.7v478.6
			c0,9.2,7.5,16.7,16.7,16.7h367.3c9.2,0,16.7-7.5,16.7-16.7v-345C456.3,146,454.7,141.7,451.5,138.5z M322.8,57l38.3,38.3
			l38.3,38.3h-76.6L322.8,57L322.8,57z M423,478.6H89V33.4h200.3v116.9c0,9.2,7.5,16.7,16.7,16.7H423L423,478.6L423,478.6z"/>
	</g>
</g>
<g>
	<g>
		<path class="st0" d="M372.9,244.9H139.1c-9.2,0-16.7,7.5-16.7,16.7c0,9.2,7.5,16.7,16.7,16.7h233.7c9.2,0,16.7-7.5,16.7-16.7
			C389.6,252.3,382.1,244.9,372.9,244.9z"/>
	</g>
</g>
<g>
	<g>
		<path class="st0" d="M372.9,311.7H139.1c-9.2,0-16.7,7.5-16.7,16.7s7.5,16.7,16.7,16.7h233.7c9.2,0,16.7-7.5,16.7-16.7
			S382.1,311.7,372.9,311.7z"/>
	</g>
</g>
<g>
	<g>
		<path class="st0" d="M272.7,378.4H139.1c-9.2,0-16.7,7.5-16.7,16.7s7.5,16.7,16.7,16.7h133.6c9.2,0,16.7-7.5,16.7-16.7
			S281.9,378.4,272.7,378.4z"/>
	</g>
</g>
</svg>
