<?xml version="1.0" encoding="utf-8"?>
<!-- Generator: Adobe Illustrator 16.0.0, SVG Export Plug-In . SVG Version: 6.00 Build 0)  -->
<!DOCTYPE svg PUBLIC "-//W3C//DTD SVG 1.1//EN" "http://www.w3.org/Graphics/SVG/1.1/DTD/svg11.dtd">
<svg version="1.1" id="Layer_1" xmlns="http://www.w3.org/2000/svg" xmlns:xlink="http://www.w3.org/1999/xlink" x="0px" y="0px"
	 width="50px" height="50px" viewBox="0 0 50 50" enable-background="new 0 0 50 50" xml:space="preserve">
<g>
	<g>
		<path fill="#E74C3C" d="M24.875,0C11.16,0,0,11.159,0,24.876C0,38.591,11.16,49.75,24.875,49.75s24.874-11.159,24.874-24.874
			C49.749,11.159,38.59,0,24.875,0z M24.875,44.153c-10.649,0-19.277-8.631-19.277-19.277c0-10.648,8.628-19.28,19.277-19.28
			c10.645,0,19.277,8.632,19.277,19.28C44.152,35.522,35.521,44.153,24.875,44.153z M19.536,22.384c1.574,0,2.85-1.275,2.85-2.848
			s-1.275-2.848-2.85-2.848c-1.571,0-2.847,1.275-2.847,2.848S17.964,22.384,19.536,22.384z M30.214,27.365
			c-1.573,0-2.849,1.275-2.849,2.85c0,1.571,1.275,2.847,2.849,2.847c1.572,0,2.848-1.275,2.848-2.847
			C33.062,28.641,31.786,27.365,30.214,27.365z M30.146,15.646l-14.502,14.5c-1.093,1.094-1.093,2.864,0,3.957
			c0.549,0.547,1.263,0.818,1.982,0.818c0.714,0,1.431-0.271,1.978-0.818l14.5-14.5c1.093-1.093,1.093-2.865,0-3.957
			C33.013,14.553,31.239,14.553,30.146,15.646z"/>
	</g>
</g>
</svg>
