<?xml version="1.0" encoding="utf-8"?>
<!-- Generator: Adobe Illustrator 22.1.0, SVG Export Plug-In . SVG Version: 6.00 Build 0)  -->
<svg version="1.1" id="Capa_1" xmlns="http://www.w3.org/2000/svg" xmlns:xlink="http://www.w3.org/1999/xlink" x="0px" y="0px"
	 viewBox="0 0 488.8 488.8" style="enable-background:new 0 0 488.8 488.8;" xml:space="preserve">
<style type="text/css">
	.st0{fill:#7A7B7D;}
</style>
<g>
	<g>
		<path class="st0" d="M81.5,488.8h325.8c19.7,0,35.8-16.1,35.8-35.8V258.3c0-19.7-16.1-35.8-35.8-35.8h-25.2v-84.8
			C382.1,61.8,320.3,0,244.4,0S106.7,61.8,106.7,137.7v84.8H81.5c-19.7,0-35.8,16.1-35.8,35.8V453C45.7,472.7,61.8,488.8,81.5,488.8
			z M131.2,137.7c0-62.4,50.8-113.2,113.2-113.2s113.2,50.8,113.2,113.2v84.8H131.2V137.7z M70.2,258.3c0-6.2,5.1-11.3,11.3-11.3
			h325.8c6.2,0,11.3,5.1,11.3,11.3V453c0,6.2-5.1,11.3-11.3,11.3H81.5c-6.2,0-11.3-5.1-11.3-11.3V258.3z"/>
		<path class="st0" d="M244.4,405.5c27.5,0,49.9-22.4,49.9-49.9s-22.4-49.9-49.9-49.9s-49.9,22.4-49.9,49.9
			C194.5,383.2,216.9,405.5,244.4,405.5z M244.4,330.3c14,0,25.4,11.4,25.4,25.4s-11.4,25.4-25.4,25.4S219,369.7,219,355.7
			S230.4,330.3,244.4,330.3z"/>
	</g>
</g>
</svg>
