<?xml version="1.0" encoding="utf-8"?>
<!-- Generator: Adobe Illustrator 22.1.0, SVG Export Plug-In . SVG Version: 6.00 Build 0)  -->
<svg version="1.1" id="Layer_1" xmlns="http://www.w3.org/2000/svg" xmlns:xlink="http://www.w3.org/1999/xlink" x="0px" y="0px"
	 viewBox="0 0 22 23" style="enable-background:new 0 0 22 23;" xml:space="preserve">
<style type="text/css">
	.st0{fill:#797A7C;}
</style>
<g>
	<g>
		<g>
			<path class="st0" d="M20.3,14.9h-4.9V1.8c0-0.3-0.2-0.5-0.5-0.5H1.3C1,1.3,0.8,1.5,0.8,1.8v16.3c0,0,0,0,0,0
				c0,1.7,1.5,3.2,3.2,3.2h13.6c1.8,0,3.2-1.4,3.2-3.2v-2.7C20.8,15.1,20.6,14.9,20.3,14.9z M6.2,18.1c0,1.2-1,2.2-2.2,2.2
				c-1.2,0-2.2-1-2.2-2.2V2.3h12.6v12.6H6.7c-0.3,0-0.5,0.2-0.5,0.5V18.1z M19.8,18.1c0,1.2-1,2.2-2.2,2.2H6.3
				c0.5-0.6,0.9-1.4,0.9-2.2v-2.2h12.6V18.1z M4.4,5.5h7.4c0.3,0,0.5-0.2,0.5-0.5c0-0.3-0.2-0.5-0.5-0.5H4.4C4.1,4.5,3.9,4.8,3.9,5
				C3.9,5.3,4.1,5.5,4.4,5.5z M10.8,10.6c0-0.3-0.2-0.5-0.5-0.5H4.4c-0.3,0-0.5,0.2-0.5,0.5c0,0.3,0.2,0.5,0.5,0.5h5.9
				C10.6,11.1,10.8,10.9,10.8,10.6z M4.4,8.3h7.4c0.3,0,0.5-0.2,0.5-0.5c0-0.3-0.2-0.5-0.5-0.5H4.4c-0.3,0-0.5,0.2-0.5,0.5
				C3.9,8,4.1,8.3,4.4,8.3z"/>
		</g>
	</g>
	<g>
		<g>
			<path class="st0" d="M17.6,21.8H4c-2,0-3.7-1.6-3.7-3.6l0-16.4c0-0.6,0.4-1,1-1h13.6c0.6,0,1,0.4,1,1v12.6h4.4c0.6,0,1,0.4,1,1
				v2.7C21.3,20.1,19.7,21.8,17.6,21.8z M4,20.8h13.6c1.5,0,2.7-1.2,2.7-2.7v-2.7v2.7c0,1.5-1.2,2.7-2.7,2.7H5.2l0.7-0.8
				C5.4,20.5,4.7,20.8,4,20.8z M7.3,19.8h10.3c0.9,0,1.7-0.8,1.7-1.7v-1.7H7.7v1.7C7.7,18.7,7.6,19.3,7.3,19.8z M2.3,2.8v15.3
				c0,0.9,0.8,1.7,1.7,1.7s1.7-0.8,1.7-1.7v-2.7c0-0.6,0.4-1,1-1h7.2V2.8H2.3z M1.3,18.1L1.3,18.1C1.3,18.1,1.3,18.1,1.3,18.1
				C1.3,18.1,1.3,18.1,1.3,18.1z M6.7,18.1L6.7,18.1L6.7,18.1z M6.7,18.1C6.7,18.1,6.7,18.1,6.7,18.1C6.7,18.1,6.7,18.1,6.7,18.1z
				 M6.7,18.1C6.7,18.1,6.7,18.1,6.7,18.1C6.7,18.1,6.7,18.1,6.7,18.1z M6.7,18.1C6.7,18.1,6.7,18.1,6.7,18.1
				C6.7,18.1,6.7,18.1,6.7,18.1z M14.9,15.4V1.8V15.4z M10.3,11.6H4.4c-0.6,0-1-0.4-1-1s0.4-1,1-1h5.9c0.6,0,1,0.4,1,1
				S10.9,11.6,10.3,11.6z M10.3,10.6h0.5H10.3C10.3,10.6,10.3,10.6,10.3,10.6z M11.8,8.8H4.4c-0.6,0-1-0.4-1-1s0.4-1,1-1h7.4
				c0.6,0,1,0.4,1,1S12.4,8.8,11.8,8.8z M4.4,7.8h7.4H4.4z M11.8,6H4.4c-0.6,0-1-0.4-1-1s0.4-1,1-1h7.4c0.6,0,1,0.4,1,1
				S12.4,6,11.8,6z M4.4,5h7.4H4.4z"/>
		</g>
	</g>
</g>
</svg>
