<?xml version="1.0" encoding="utf-8"?>
<!-- Generator: Adobe Illustrator 22.1.0, SVG Export Plug-In . SVG Version: 6.00 Build 0)  -->
<svg version="1.1" id="Layer_1" xmlns="http://www.w3.org/2000/svg" xmlns:xlink="http://www.w3.org/1999/xlink" x="0px" y="0px"
	 viewBox="0 0 512 512" style="enable-background:new 0 0 512 512;" xml:space="preserve">
<style type="text/css">
	.st0{fill:#797A7C;}
</style>
<g>
	<g>
		<g>
			<path class="st0" d="M480.3,184.2v147.4h31V197.1C511.3,197.1,508.7,182.7,480.3,184.2z M441.5,184.2v147.4h31V197.1
				C472.5,197.1,469.9,182.7,441.5,184.2z M281.2,310.9c0.5-5.7,7.8-10.3,7.8-10.3s20.7-9.3,38.8-31c16.3-32.1-9.3-62.6-46.5-56.9
				c-22.2,3.4-29.5,24.8-31,33.6s2.6,10.3,2.6,10.3h18.1c-0.3-16.8,11.9-25.9,25.9-23.3s16.3,19.4,7.8,28.4
				c-5.4,5.4-33.9,25.1-41.4,33.6c-21.2,18.9-15.5,36.2-15.5,36.2h85.3v-20.7C332.9,310.9,281.4,310.7,281.2,310.9z M433.7,238.5
				c-1.3-18.9-33.6-26.6-59.5-23.3c-25.9,3.4-33.6,31-33.6,31h28.4c7-8.8,18.4-8.8,25.9-7.8c7.5,1,15,4.1,12.9,12.9
				c-0.3,10.1-9.3,11.9-23.3,12.9c-14,1-33.6,7.8-33.6,7.8s-12.9,4.4-12.9,23.3c1.6,28.4,15.5,33.6,15.5,33.6s9.3,7.2,46.5,2.6
				s33.6-38.8,33.6-38.8S435,257.4,433.7,238.5z M407.9,298c-2.3,9.6-12.9,12.9-12.9,12.9s-16.8,2.6-23.3-2.6s-5.9-11.4-5.2-15.5
				c0.8-4.1,7.5-9.6,18.1-10.3c10.6-0.8,23.3-5.2,23.3-5.2S408.6,287.1,407.9,298z M190.6,212.7c-0.5,0.5-23.5,0.3-36.2,12.9
				c0,0.5-11.4-12.9-36.2-12.9s-49.1,15.5-49.1,38.8s0,23.3,0,23.3v56.9h28.4V254c0,0,3.9-15.5,20.7-15.5s20.7,12.2,20.7,15.5
				s0,77.6,0,77.6h28.4V254c0,0,4.4-18.1,23.3-18.1s20.7,18.1,20.7,18.1v64.6c0,0-0.3,12.9,10.3,12.9H232l0,0h7.8v-82.7
				C239.8,248.9,238.2,212.7,190.6,212.7z"/>
		</g>
	</g>
	<g>
		<g>
			<path class="st0" d="M30.3,202.3c1.3-20.9-14-24-31-23.3c15,6.7,15.5,23.3,15.5,23.3H30.3z M105.3,204.9H14.8l2.6,12.9h36.2v5.2
				H20v7.8h31v5.2H22.6v7.8h25.9v5.2H25.2l12.9,56.9c0,0,9.8-3.1,18.1-2.6c0.3-0.5,0-49.1,0-49.1S54.6,206.7,105.3,204.9z"/>
		</g>
	</g>
	<g>
		<g>
			<g>
				<path class="st0" d="M49.7,308.3c-6.5,0-11.6,5.2-11.6,11.6c0,6.5,5.2,11.6,11.6,11.6s11.6-5.2,11.6-11.6
					C61.4,313.5,56.2,308.3,49.7,308.3z M49.7,329c-4.9,0-9.1-4.1-9.1-9.1c0-4.9,4.1-9.1,9.1-9.1s9.1,4.1,9.1,9.1
					C58.8,324.9,54.6,329,49.7,329z M49.7,313.5c-3.6,0-6.5,2.8-6.5,6.5s2.8,6.5,6.5,6.5s6.5-2.8,6.5-6.5S53.3,313.5,49.7,313.5z"/>
			</g>
		</g>
	</g>
</g>
</svg>
