<?xml version="1.0" encoding="utf-8"?>
<!-- Generator: Adobe Illustrator 16.0.0, SVG Export Plug-In . SVG Version: 6.00 Build 0)  -->
<!DOCTYPE svg PUBLIC "-//W3C//DTD SVG 1.1//EN" "http://www.w3.org/Graphics/SVG/1.1/DTD/svg11.dtd">
<svg version="1.1" id="Layer_1" xmlns="http://www.w3.org/2000/svg" xmlns:xlink="http://www.w3.org/1999/xlink" x="0px" y="0px"
	 width="50px" height="50px" viewBox="0 0 50 50" enable-background="new 0 0 50 50" xml:space="preserve">
<path fill="#E74C3C" d="M46.603,16.799l-0.527-0.53v-0.745c0-6.396-5.205-11.599-11.602-11.599h-0.747l-0.527-0.53
	C31.009,1.206,28.097,0,24.996,0c-3.098,0-6.011,1.206-8.203,3.396l-0.527,0.53h-0.747c-6.396,0-11.599,5.203-11.599,11.599v0.745
	l-0.527,0.53c-4.523,4.521-4.523,11.88,0,16.404L3.92,33.73v0.744c0,6.396,5.204,11.602,11.601,11.602h0.745l0.53,0.525
	C18.985,48.794,21.9,50,24.996,50c3.101,0,6.016-1.206,8.203-3.396l0.527-0.527h0.747c6.398,0,11.602-5.205,11.602-11.602V33.73
	l0.527-0.529c2.192-2.19,3.398-5.104,3.398-8.201C50.001,21.902,48.795,18.989,46.603,16.799z M43.771,30.369l-1.116,1.113
	c-0.376,0.375-0.588,0.886-0.588,1.418v1.574c0,4.188-3.403,7.596-7.593,7.596h-1.577c-0.53,0-1.04,0.21-1.416,0.586l-1.113,1.113
	c-1.436,1.436-3.34,2.225-5.371,2.225c-2.026,0-3.936-0.789-5.369-2.225l-1.116-1.113c-0.374-0.376-0.884-0.586-1.416-0.586h-1.577
	c-4.185,0-7.593-3.408-7.593-7.596V32.9c0-0.532-0.21-1.043-0.586-1.418l-1.113-1.113c-2.961-2.962-2.961-7.779,0-10.738
	l1.113-1.116c0.376-0.376,0.586-0.884,0.586-1.416v-1.575c0-4.187,3.408-7.593,7.593-7.593h1.577c0.532,0,1.04-0.212,1.416-0.588
	l1.116-1.113c1.433-1.436,3.342-2.224,5.369-2.224c2.031,0,3.936,0.789,5.371,2.224l1.115,1.113
	c0.374,0.376,0.884,0.588,1.416,0.588h1.575c4.187,0,7.593,3.406,7.593,7.593V17.1c0,0.532,0.212,1.04,0.588,1.416l1.116,1.116
	c1.433,1.433,2.222,3.34,2.222,5.369C45.992,27.029,45.206,28.936,43.771,30.369z M33.702,15.742L13.844,31.086
	c-0.876,0.677-1.038,1.937-0.361,2.811c0.396,0.51,0.986,0.779,1.587,0.779c0.427,0,0.857-0.137,1.221-0.418l19.863-15.344
	c0.874-0.676,1.035-1.936,0.361-2.81C35.836,15.229,34.578,15.066,33.702,15.742z M20.785,22.322c1.492,0,2.893-0.581,3.948-1.636
	c1.055-1.052,1.633-2.454,1.633-3.945c0-1.489-0.578-2.893-1.633-3.945c-1.055-1.055-2.456-1.636-3.948-1.636
	s-2.893,0.581-3.948,1.636c-1.055,1.052-1.633,2.454-1.633,3.945s0.581,2.893,1.633,3.945
	C17.892,21.741,19.293,22.322,20.785,22.322z M19.671,15.627c0.295-0.298,0.691-0.461,1.113-0.461c0.42,0,0.815,0.164,1.113,0.461
	s0.461,0.693,0.461,1.113s-0.164,0.815-0.464,1.113c-0.593,0.593-1.628,0.596-2.227-0.002c-0.298-0.295-0.459-0.691-0.459-1.111
	S19.374,15.925,19.671,15.627z M29.21,27.678c-1.489,0-2.894,0.582-3.945,1.637c-1.055,1.052-1.636,2.453-1.636,3.945
	c0,1.488,0.581,2.893,1.636,3.945c1.052,1.055,2.453,1.635,3.945,1.635c1.489,0,2.891-0.58,3.945-1.635
	c1.055-1.053,1.636-2.454,1.636-3.945c0-1.492-0.581-2.894-1.636-3.945C32.103,28.26,30.701,27.678,29.21,27.678z M30.323,34.373
	c-0.596,0.593-1.631,0.593-2.227,0c-0.298-0.299-0.462-0.693-0.462-1.113s0.164-0.816,0.462-1.113
	c0.298-0.296,0.693-0.462,1.113-0.462s0.815,0.163,1.113,0.464c0.298,0.295,0.459,0.691,0.459,1.111S30.621,34.074,30.323,34.373z"
	/>
</svg>
