<?xml version="1.0" encoding="utf-8"?>
<!-- Generator: Adobe Illustrator 16.0.0, SVG Export Plug-In . SVG Version: 6.00 Build 0)  -->
<!DOCTYPE svg PUBLIC "-//W3C//DTD SVG 1.1//EN" "http://www.w3.org/Graphics/SVG/1.1/DTD/svg11.dtd">
<svg version="1.1" id="Layer_1" xmlns="http://www.w3.org/2000/svg" xmlns:xlink="http://www.w3.org/1999/xlink" x="0px" y="0px"
	 width="50px" height="50px" viewBox="0 0 50 50" enable-background="new 0 0 50 50" xml:space="preserve">
<g>
	<g>
		<path fill="#E74C3C" d="M36.434,0l-3.813,2.054L28.813,0L25,2.054L21.188,0l-3.81,2.054L13.566,0L7.652,3.187v43.499l5.915,3.189
			l3.812-2.054l3.81,2.054L25,47.821l3.813,2.054l3.809-2.054l3.813,2.054l5.915-3.189V3.187L36.434,0z M38.141,44.263l-1.709,0.92
			l-3.811-2.055l-3.809,2.055L25,43.128l-3.812,2.055l-3.812-2.055l-3.81,2.055l-1.709-0.92V5.612l1.709-0.921l3.81,2.054
			l3.812-2.054L25,6.745l3.813-2.054l3.809,2.054l3.811-2.054l1.709,0.921V44.263z M16.065,14.668h17.869v-4.107H16.065V14.668z
			 M16.065,22.883h17.869v-4.107H16.065V22.883z M22.897,39.312h11.038v-4.105H22.897V39.312z"/>
	</g>
</g>
</svg>
