<?xml version="1.0" encoding="utf-8"?>
<!-- Generator: Adobe Illustrator 16.0.0, SVG Export Plug-In . SVG Version: 6.00 Build 0)  -->
<!DOCTYPE svg PUBLIC "-//W3C//DTD SVG 1.1//EN" "http://www.w3.org/Graphics/SVG/1.1/DTD/svg11.dtd">
<svg version="1.1" id="Layer_1" xmlns="http://www.w3.org/2000/svg" xmlns:xlink="http://www.w3.org/1999/xlink" x="0px" y="0px"
	 width="50px" height="50px" viewBox="0 0 50 50" enable-background="new 0 0 50 50" xml:space="preserve">
<path fill="#E74C3C" d="M3.979,43.772c-0.486,1.759-0.729,2.445-0.729,3.126c0,1.955,1.627,3.129,3.107,3.129
	c2.16,0,4.345-2.76,4.66-3.129c0.316,0.369,2.5,3.129,4.66,3.129c1.48,0,3.107-1.174,3.107-3.129c0-0.684-0.242-1.367-0.729-3.126
	l-0.643-2.113c-1.798,1.323-4.003,2.113-6.396,2.113s-4.598-0.79-6.396-2.113L3.979,43.772z M11.018,25.013
	c-4.291,0-7.768,3.498-7.768,7.816s3.477,7.816,7.768,7.816s7.768-3.498,7.768-7.816S15.308,25.013,11.018,25.013z M18.785,24.308
	h18.642v-2.421H18.785V24.308z M37.427,28.14H20.826c0.461,0.973,0.783,1.316,0.94,2.422h15.661V28.14z M21.285,43.772h22.356
	c1.711,0,3.109-1.406,3.109-3.127V12.506c0-1.272-0.617-1.954-1.789-3.127l-7.534-7.574C36.393,0.748,35.811,0,34.319,0H12.572
	c-1.709,0-3.107,1.406-3.107,3.126v18.885c0.507-0.075,1.023-0.125,1.553-0.125c1.668,0,1.141,0.391,2.555,1.07V4.137h20.747v8.369
	h8.321v27.126H20.83c-0.268,0.563-0.57-0.3-0.936,0.212C20.119,40.618,20.896,42.332,21.285,43.772z M18.785,11.801h12.429V9.379
	H18.785V11.801z M37.427,15.633H18.785v2.422h18.642V15.633z"/>
</svg>
