<?xml version="1.0" encoding="utf-8"?>
<!-- Generator: Adobe Illustrator 16.0.0, SVG Export Plug-In . SVG Version: 6.00 Build 0)  -->
<!DOCTYPE svg PUBLIC "-//W3C//DTD SVG 1.1//EN" "http://www.w3.org/Graphics/SVG/1.1/DTD/svg11.dtd">
<svg version="1.1" id="Layer_1" xmlns="http://www.w3.org/2000/svg" xmlns:xlink="http://www.w3.org/1999/xlink" x="0px" y="0px"
	 width="50px" height="50px" viewBox="0 0 50 50" enable-background="new 0 0 50 50" xml:space="preserve">
<g>
	<path fill="#E74C3C" d="M1.702,10.352c-0.612,0-1.107,0.511-1.107,1.143v27.397c0,0.63,0.496,1.142,1.107,1.142h46.545
		c0.613,0,1.11-0.512,1.11-1.142V11.495c0-0.632-0.497-1.143-1.11-1.143H1.702z M2.812,12.636H47.14V37.75H2.812V12.636z
		 M10.829,14.348c-0.493,0.047-0.896,0.426-0.987,0.928c-0.416,2.35-2.197,4.219-4.467,4.672c-0.517,0.102-0.895,0.566-0.901,1.106
		v8.259c-0.001,0.549,0.378,1.021,0.901,1.124c2.271,0.453,4.051,2.307,4.467,4.655c0.092,0.545,0.553,0.945,1.092,0.945h28.085
		c0.537,0,0.999-0.4,1.093-0.945c0.414-2.349,2.193-4.202,4.467-4.655c0.521-0.104,0.9-0.575,0.898-1.124v-8.259
		c-0.006-0.54-0.384-1.004-0.898-1.106c-2.273-0.453-4.053-2.323-4.467-4.672c-0.1-0.539-0.56-0.928-1.093-0.928H10.933
		C10.897,14.346,10.863,14.346,10.829,14.348z M11.711,16.631h26.527c0.764,2.485,2.62,4.4,5.022,5.208v6.69
		c-2.408,0.811-4.262,2.733-5.022,5.226H11.711c-0.758-2.492-2.613-4.415-5.021-5.226v-6.69
		C9.093,21.032,10.95,19.117,11.711,16.631z M24.976,18.344c-3.66,0-6.65,3.079-6.65,6.849c0,3.771,2.99,6.849,6.65,6.849
		c3.659,0,6.651-3.077,6.651-6.849C31.627,21.423,28.635,18.344,24.976,18.344z M24.976,20.628c2.461,0,4.433,2.029,4.433,4.565
		c0,2.535-1.972,4.565-4.433,4.565c-2.462,0-4.434-2.03-4.434-4.565C20.542,22.657,22.514,20.628,24.976,20.628z"/>
	<path fill="#E74C3C" d="M48.247,40.534H1.702c-0.886,0-1.607-0.736-1.607-1.642V11.495c0-0.906,0.721-1.643,1.607-1.643h46.545
		c0.888,0,1.61,0.737,1.61,1.643v27.397C49.857,39.798,49.135,40.534,48.247,40.534z M1.702,10.852
		c-0.335,0-0.607,0.289-0.607,0.643v27.397c0,0.354,0.272,0.642,0.607,0.642h46.545c0.337,0,0.61-0.288,0.61-0.642V11.495
		c0-0.354-0.273-0.643-0.61-0.643H1.702z M47.64,38.25H2.312V12.136H47.64V38.25z M3.312,37.25H46.64V13.136H3.312V37.25z
		 M39.019,36.538H10.933c-0.785,0-1.452-0.573-1.585-1.362c-0.377-2.128-2.014-3.837-4.072-4.248
		c-0.756-0.149-1.305-0.829-1.304-1.615v-8.258c0.01-0.781,0.559-1.45,1.305-1.597c2.055-0.41,3.692-2.125,4.071-4.269
		c0.13-0.72,0.719-1.27,1.432-1.338l0.152,0.498v-0.5h28.085c0.774,0,1.441,0.562,1.584,1.337c0.379,2.147,2.016,3.863,4.073,4.273
		c0.745,0.147,1.292,0.816,1.301,1.591v8.265c0.003,0.784-0.544,1.464-1.301,1.614c-2.06,0.411-3.696,2.119-4.072,4.252
		C40.469,35.966,39.802,36.538,39.019,36.538z M10.933,14.848c-0.326,0.023-0.549,0.237-0.6,0.517
		c-0.451,2.544-2.404,4.583-4.862,5.074c-0.286,0.056-0.495,0.318-0.499,0.622v8.253c0,0.311,0.209,0.576,0.499,0.634
		c2.459,0.49,4.414,2.523,4.862,5.059c0.052,0.31,0.304,0.532,0.6,0.532h28.085c0.295,0,0.547-0.223,0.6-0.53
		c0.447-2.537,2.401-4.57,4.862-5.061c0.289-0.058,0.497-0.323,0.496-0.632v-8.261c-0.003-0.298-0.212-0.56-0.495-0.615
		c-2.46-0.491-4.414-2.53-4.862-5.076c-0.055-0.296-0.308-0.515-0.601-0.515H10.933z M38.608,34.255H11.34L11.232,33.9
		c-0.714-2.347-2.428-4.132-4.703-4.897l-0.34-0.114V21.48l0.341-0.115c2.272-0.763,3.986-2.542,4.703-4.88l0.108-0.354h27.266
		l0.108,0.353c0.719,2.338,2.434,4.118,4.704,4.881l0.341,0.115v7.409l-0.341,0.114c-2.272,0.766-3.986,2.551-4.703,4.897
		L38.608,34.255z M12.073,33.255h25.803c0.831-2.37,2.585-4.192,4.885-5.077v-5.987c-2.297-0.882-4.051-2.699-4.884-5.06H12.073
		c-0.831,2.36-2.584,4.177-4.883,5.06v5.987C9.491,29.063,11.244,30.886,12.073,33.255z M24.976,32.542
		c-3.942,0-7.15-3.297-7.15-7.349c0-4.052,3.208-7.349,7.15-7.349c3.943,0,7.151,3.297,7.151,7.349
		C32.127,29.245,28.919,32.542,24.976,32.542z M24.976,18.844c-3.391,0-6.15,2.848-6.15,6.349s2.759,6.349,6.15,6.349
		c3.392,0,6.151-2.848,6.151-6.349S28.367,18.844,24.976,18.844z M24.976,30.259c-2.72,0-4.934-2.272-4.934-5.065
		s2.213-5.065,4.934-5.065c2.72,0,4.933,2.272,4.933,5.065S27.695,30.259,24.976,30.259z M24.976,21.128
		c-2.169,0-3.934,1.824-3.934,4.065c0,2.241,1.765,4.065,3.934,4.065c2.168,0,3.933-1.824,3.933-4.065
		C28.908,22.952,27.144,21.128,24.976,21.128z"/>
</g>
</svg>
