<?xml version="1.0" encoding="utf-8"?>
<!-- Generator: Adobe Illustrator 23.0.1, SVG Export Plug-In . SVG Version: 6.00 Build 0)  -->
<svg version="1.1" id="Layer_1" xmlns="http://www.w3.org/2000/svg" xmlns:xlink="http://www.w3.org/1999/xlink" x="0px" y="0px"
	 viewBox="0 0 301.71 191.84" style="enable-background:new 0 0 301.71 191.84;" xml:space="preserve">
<style type="text/css">
	.st0{fill:#E64C3C;}
</style>
<path class="st0" d="M255.62,7.92c5.69-2.66,10.51-5.78,15.78-7.18c10.03-2.68,20.63,2.23,26.19,11.07
	c5.71,9.09,5.73,21.06-1.44,28.87c-11.13,12.11-23.01,23.53-34.73,35.08c-3.21,3.16-7.04,2.83-10.22-0.33
	c-11.21-11.12-22.62-22.07-33.39-33.6c-8.88-9.51-8.13-24.58,0.83-34.05c8.94-9.45,23.51-10.4,33.94-2.22
	C253.85,6.56,255.15,7.56,255.62,7.92z M256.63,60.16c9.51-9.41,19.39-18.8,28.78-28.67c3.59-3.77,2.43-10.51-1.33-14.11
	c-3.88-3.7-10.45-4.16-14.67-0.8c-2.2,1.76-4.14,3.86-6.14,5.85c-4.72,4.7-8.38,4.75-13.27,0.1c-2.05-1.95-3.93-4.12-6.15-5.84
	c-4.79-3.72-10.93-3.28-14.98,0.82c-4.02,4.07-4.63,10.52-0.41,14.89C237.57,41.86,247.14,50.87,256.63,60.16z"/>
<path class="st0" d="M81,95.64c0,0-3.21-11.43-20.79-11.21c-17.57,0.21-21,5.61-21,5.61S32.57,96,42.43,102s41.57,8.36,53.79,13.5
	c12.21,5.14,26.79,19.5,19.5,46.71S67.5,191.79,67.5,191.79S32.79,193.72,14.14,174C4.07,163.07,1.93,152.57,0,146.36
	c7.71,0.43,34.29,0,34.29,0s3.64,15.21,27.43,15c23.79-0.21,23.79-10.93,23.79-10.93s6-9-20.36-13.93c-26.36-4.93-47.36-6-59.14-27
	C0,94.07,7.71,67.29,30.21,60.43s46.93-7.07,66,5.14s18.43,30.07,18.43,30.07H81z"/>
<path class="st0" d="M137.89,59.25h-15.11V88.5h15.11v99.96H171V87.86h23.46V59.25h-22.5c0,0-3.86-23.46,23.79-23.46V4.29
	c0,0-41.14-7.39-55.29,35.04C138.86,48.32,138.21,49.93,137.89,59.25z"/>
</svg>
