<?xml version="1.0" encoding="utf-8"?>
<!-- Generator: Adobe Illustrator 16.0.0, SVG Export Plug-In . SVG Version: 6.00 Build 0)  -->
<!DOCTYPE svg PUBLIC "-//W3C//DTD SVG 1.1//EN" "http://www.w3.org/Graphics/SVG/1.1/DTD/svg11.dtd">
<svg version="1.1" id="Layer_1" xmlns="http://www.w3.org/2000/svg" xmlns:xlink="http://www.w3.org/1999/xlink" x="0px" y="0px"
	 width="50px" height="50px" viewBox="0 0 50 50" enable-background="new 0 0 50 50" xml:space="preserve">
<g>
	<g>
		<path fill="#797A7C" d="M48.858,33.738H36.646V1.244C36.646,0.558,36.091,0,35.403,0H1.596C0.91,0,0.352,0.558,0.352,1.244v40.583
			c0,0.029,0.007,0.057,0.008,0.085c0.091,4.337,3.625,7.838,7.963,7.838h33.809c4.395,0,7.97-3.591,7.97-8.007v-6.762
			C50.102,34.295,49.546,33.738,48.858,33.738z M13.808,41.743c0,3.044-2.46,5.52-5.485,5.52c-3.023,0-5.484-2.476-5.484-5.52V2.487
			h31.32v31.251H15.052c-0.688,0-1.244,0.557-1.244,1.243V41.743z M47.614,41.743c0,3.044-2.458,5.52-5.482,5.52H14.084
			c1.366-1.438,2.211-3.379,2.211-5.52v-5.518h31.319V41.743z M9.258,10.51H27.74c0.688,0,1.244-0.557,1.244-1.244
			c0-0.687-0.557-1.244-1.244-1.244H9.258c-0.686,0-1.244,0.558-1.244,1.244C8.015,9.953,8.572,10.51,9.258,10.51z M25.228,23.042
			c0-0.688-0.556-1.244-1.244-1.244H9.258c-0.686,0-1.244,0.556-1.244,1.244s0.558,1.244,1.244,1.244h14.726
			C24.671,24.285,25.228,23.729,25.228,23.042z M9.258,17.288H27.74c0.688,0,1.244-0.556,1.244-1.244
			c0-0.686-0.557-1.244-1.244-1.244H9.258c-0.686,0-1.244,0.558-1.244,1.244C8.015,16.732,8.572,17.288,9.258,17.288z"/>
	</g>
</g>
</svg>
