<?xml version="1.0" encoding="utf-8"?>
<!-- Generator: Adobe Illustrator 23.0.1, SVG Export Plug-In . SVG Version: 6.00 Build 0)  -->
<svg version="1.1" id="Layer_1" xmlns="http://www.w3.org/2000/svg" xmlns:xlink="http://www.w3.org/1999/xlink" x="0px" y="0px"
	 viewBox="0 0 480 480" style="enable-background:new 0 0 480 480;" xml:space="preserve">
<style type="text/css">
	.st0{fill:#333333;}
</style>
<path class="st0" d="M472,208h-9.4l-14.7-73.6c-0.8-3.7-4-6.4-7.8-6.4h-96c-0.3,0-0.5,0.1-0.8,0.2c-0.7,0.1-1.5,0.2-2.2,0.5
	c-0.3,0.1-0.6,0.3-0.9,0.5c-0.7,0.4-1.3,0.9-1.8,1.4c-0.2,0.2-0.4,0.2-0.5,0.4s-0.1,0.2-0.2,0.3c-0.5,0.7-0.8,1.4-1.1,2.1
	c-0.1,0.3-0.2,0.5-0.3,0.8c0,0.1-0.1,0.1-0.1,0.2L321.4,208H208v-8c0-13.3-10.7-24-24-24v-16h64c13.3,0,24-10.7,24-24V24
	c0-13.3-10.7-24-24-24H56C42.7,0,32,10.7,32,24v112c0,13.3,10.7,24,24,24h64v16c-13.3,0-24,10.7-24,24v8H8c-4.4,0-8,3.6-8,8v256
	c0,4.4,3.6,8,8,8h32c4.4,0,8-3.6,8-8v-56h384v56c0,4.4,3.6,8,8,8h32c4.4,0,8-3.6,8-8V216C480,211.6,476.4,208,472,208z M433.4,144
	l12.8,64h-79.7l-12.8-64H433.4z M343.1,181.3l6.7,26.7h-12L343.1,181.3z M48,24c0-4.4,3.6-8,8-8h192c4.4,0,8,3.6,8,8v88H48V24z
	 M48,136v-8h208v8c0,4.4-3.6,8-8,8H56C51.6,144,48,140.4,48,136z M136,160h32v16h-32V160z M112,200c0-4.4,3.6-8,8-8h64
	c4.4,0,8,3.6,8,8v8h-80V200z M48,400V256h384v144H48z M464,464h-16V248c0-4.4-3.6-8-8-8H40c-4.4,0-8,3.6-8,8v216H16V224h448V464z"/>
</svg>
