<?xml version="1.0" encoding="utf-8"?>
<!-- Generator: Adobe Illustrator 22.1.0, SVG Export Plug-In . SVG Version: 6.00 Build 0)  -->
<svg version="1.1" id="Layer_1" xmlns="http://www.w3.org/2000/svg" xmlns:xlink="http://www.w3.org/1999/xlink" x="0px" y="0px"
	 viewBox="0 0 50 50" style="enable-background:new 0 0 50 50;" xml:space="preserve">
<style type="text/css">
	.st0{fill:#797A7C;}
</style>
<path class="st0" d="M45.8,18.8c0-4.8,0-8.3,0-8.3c0,0-2.5,0-6.2,0v2.1c0,1.2-0.9,2.1-2.1,2.1c-1.1,0-2.1-0.9-2.1-2.1v-2.1
	c-6.4,0-14.5,0-20.8,0v2.1c0,1.2-0.9,2.1-2.1,2.1c-1.1,0-2.1-0.9-2.1-2.1v-2.1c-3.8,0-6.2,0-6.2,0c0,0,0,3.5,0,8.3L45.8,18.8
	L45.8,18.8z M45.8,22.9H4.2c0,10.2,0,22.9,0,22.9c0,0,41.6,0,41.6,0C45.8,45.8,45.8,33.1,45.8,22.9z M39.6,6.3h6.2
	c2.3,0,4.2,1.9,4.2,4.2v35.4c0,2.3-1.9,4.2-4.2,4.2H4.2C1.9,50,0,48.1,0,45.8V10.5c0-2.3,1.9-4.2,4.2-4.2h6.2V2.1
	C10.4,1,11.3,0,12.5,0c1.1,0,2.1,0.9,2.1,2.1v4.2h20.8V2.1C35.4,1,36.3,0,37.5,0c1.2,0,2.1,0.9,2.1,2.1V6.3z"/>
</svg>
