<?xml version="1.0" encoding="UTF-8" standalone="no"?>
<!DOCTYPE svg PUBLIC "-//W3C//DTD SVG 1.1//EN"
 "http://www.w3.org/Graphics/SVG/1.1/DTD/svg11.dtd">
<!-- Generated by graphviz version 2.46.0 (20210119.1425)
 -->
<!-- Title: dependencies Pages: 1 -->
<svg width="504pt" height="211pt"
 viewBox="0.00 0.00 504.00 211.00" xmlns="http://www.w3.org/2000/svg" xmlns:xlink="http://www.w3.org/1999/xlink">
<g id="graph0" class="graph" transform="scale(1 1) rotate(0) translate(4 207)">
<title>dependencies</title>
<polygon fill="white" stroke="transparent" points="-4,4 -4,-207 500,-207 500,4 -4,4"/>
<text text-anchor="start" x="227.01" y="-42.4" font-family="sans-serif" font-weight="bold" font-size="14.00">Legend</text>
<polygon fill="#ffffb3" stroke="transparent" points="14,-10 14,-30 34,-30 34,-10 14,-10"/>
<text text-anchor="start" x="37.63" y="-15.4" font-family="sans-serif" font-size="14.00"> &#160;Declarations</text>
<polygon fill="#8dd3c7" stroke="transparent" points="127,-10 127,-30 147,-30 147,-10 127,-10"/>
<text text-anchor="start" x="150.73" y="-15.4" font-family="sans-serif" font-size="14.00"> &#160;Module</text>
<polygon fill="#80b1d3" stroke="transparent" points="213,-10 213,-30 233,-30 233,-10 213,-10"/>
<text text-anchor="start" x="236.78" y="-15.4" font-family="sans-serif" font-size="14.00"> &#160;Bootstrap</text>
<polygon fill="#fdb462" stroke="transparent" points="310,-10 310,-30 330,-30 330,-10 310,-10"/>
<text text-anchor="start" x="333.67" y="-15.4" font-family="sans-serif" font-size="14.00"> &#160;Providers</text>
<polygon fill="#fb8072" stroke="transparent" points="406,-10 406,-30 426,-30 426,-10 406,-10"/>
<text text-anchor="start" x="429.73" y="-15.4" font-family="sans-serif" font-size="14.00"> &#160;Exports</text>
<g id="clust1" class="cluster">
<title>cluster_AttendanceDetailModule</title>
<polygon fill="none" stroke="black" stroke-dasharray="1,5" points="81,-70 81,-195 415,-195 415,-70 81,-70"/>
</g>
<g id="clust4" class="cluster">
<title>cluster_AttendanceDetailModule_imports</title>
<polygon fill="none" stroke="black" points="293,-78 293,-130 407,-130 407,-78 293,-78"/>
</g>
<g id="clust2" class="cluster">
<title>cluster_AttendanceDetailModule_declarations</title>
<polygon fill="none" stroke="black" points="89,-78 89,-130 285,-130 285,-78 89,-78"/>
</g>
<!-- AttendanceDetailComponent -->
<g id="node1" class="node">
<title>AttendanceDetailComponent</title>
<polygon fill="#ffffb3" stroke="black" points="276.79,-122 97.21,-122 97.21,-86 276.79,-86 276.79,-122"/>
<text text-anchor="middle" x="187" y="-99.8" font-family="Times,serif" font-size="14.00">AttendanceDetailComponent</text>
</g>
<!-- AttendanceDetailModule -->
<g id="node2" class="node">
<title>AttendanceDetailModule</title>
<polygon fill="#8dd3c7" stroke="black" points="335.5,-187 332.5,-191 311.5,-191 308.5,-187 178.5,-187 178.5,-151 335.5,-151 335.5,-187"/>
<text text-anchor="middle" x="257" y="-164.8" font-family="Times,serif" font-size="14.00">AttendanceDetailModule</text>
</g>
<!-- AttendanceDetailComponent&#45;&gt;AttendanceDetailModule -->
<g id="edge1" class="edge">
<title>AttendanceDetailComponent&#45;&gt;AttendanceDetailModule</title>
<path fill="none" stroke="black" d="M227.45,-122.11C227.45,-122.11 227.45,-140.99 227.45,-140.99"/>
<polygon fill="black" stroke="black" points="223.95,-140.99 227.45,-150.99 230.95,-140.99 223.95,-140.99"/>
</g>
<!-- SharedModule -->
<g id="node3" class="node">
<title>SharedModule</title>
<polygon fill="#8dd3c7" stroke="black" points="399.42,-122 396.42,-126 375.42,-126 372.42,-122 300.58,-122 300.58,-86 399.42,-86 399.42,-122"/>
<text text-anchor="middle" x="350" y="-99.8" font-family="Times,serif" font-size="14.00">SharedModule</text>
</g>
<!-- SharedModule&#45;&gt;AttendanceDetailModule -->
<g id="edge2" class="edge">
<title>SharedModule&#45;&gt;AttendanceDetailModule</title>
<path fill="none" stroke="black" d="M318.27,-122.11C318.27,-122.11 318.27,-140.99 318.27,-140.99"/>
<polygon fill="black" stroke="black" points="314.77,-140.99 318.27,-150.99 321.77,-140.99 314.77,-140.99"/>
</g>
</g>
</svg>
