<?xml version="1.0" encoding="UTF-8" standalone="no"?>
<!DOCTYPE svg PUBLIC "-//W3C//DTD SVG 1.1//EN"
 "http://www.w3.org/Graphics/SVG/1.1/DTD/svg11.dtd">
<!-- Generated by graphviz version 2.46.0 (20210119.1425)
 -->
<!-- Title: dependencies Pages: 1 -->
<svg width="504pt" height="211pt"
 viewBox="0.00 0.00 504.00 211.00" xmlns="http://www.w3.org/2000/svg" xmlns:xlink="http://www.w3.org/1999/xlink">
<g id="graph0" class="graph" transform="scale(1 1) rotate(0) translate(4 207)">
<title>dependencies</title>
<polygon fill="white" stroke="transparent" points="-4,4 -4,-207 500,-207 500,4 -4,4"/>
<text text-anchor="start" x="227.01" y="-42.4" font-family="sans-serif" font-weight="bold" font-size="14.00">Legend</text>
<polygon fill="#ffffb3" stroke="transparent" points="14,-10 14,-30 34,-30 34,-10 14,-10"/>
<text text-anchor="start" x="37.63" y="-15.4" font-family="sans-serif" font-size="14.00"> &#160;Declarations</text>
<polygon fill="#8dd3c7" stroke="transparent" points="127,-10 127,-30 147,-30 147,-10 127,-10"/>
<text text-anchor="start" x="150.73" y="-15.4" font-family="sans-serif" font-size="14.00"> &#160;Module</text>
<polygon fill="#80b1d3" stroke="transparent" points="213,-10 213,-30 233,-30 233,-10 213,-10"/>
<text text-anchor="start" x="236.78" y="-15.4" font-family="sans-serif" font-size="14.00"> &#160;Bootstrap</text>
<polygon fill="#fdb462" stroke="transparent" points="310,-10 310,-30 330,-30 330,-10 310,-10"/>
<text text-anchor="start" x="333.67" y="-15.4" font-family="sans-serif" font-size="14.00"> &#160;Providers</text>
<polygon fill="#fb8072" stroke="transparent" points="406,-10 406,-30 426,-30 426,-10 406,-10"/>
<text text-anchor="start" x="429.73" y="-15.4" font-family="sans-serif" font-size="14.00"> &#160;Exports</text>
<g id="clust1" class="cluster">
<title>cluster_AdminEmployeeFlexiDeclarationModule</title>
<polygon fill="none" stroke="black" stroke-dasharray="1,5" points="35,-70 35,-195 461,-195 461,-70 35,-70"/>
</g>
<g id="clust2" class="cluster">
<title>cluster_AdminEmployeeFlexiDeclarationModule_declarations</title>
<polygon fill="none" stroke="black" points="165,-78 165,-130 453,-130 453,-78 165,-78"/>
</g>
<g id="clust4" class="cluster">
<title>cluster_AdminEmployeeFlexiDeclarationModule_imports</title>
<polygon fill="none" stroke="black" points="43,-78 43,-130 157,-130 157,-78 43,-78"/>
</g>
<!-- AdminEmployeeFlexiDeclarationComponent -->
<g id="node1" class="node">
<title>AdminEmployeeFlexiDeclarationComponent</title>
<polygon fill="#ffffb3" stroke="black" points="444.56,-122 173.44,-122 173.44,-86 444.56,-86 444.56,-122"/>
<text text-anchor="middle" x="309" y="-99.8" font-family="Times,serif" font-size="14.00">AdminEmployeeFlexiDeclarationComponent</text>
</g>
<!-- AdminEmployeeFlexiDeclarationModule -->
<g id="node2" class="node">
<title>AdminEmployeeFlexiDeclarationModule</title>
<polygon fill="#8dd3c7" stroke="black" points="362.78,-187 359.78,-191 338.78,-191 335.78,-187 113.22,-187 113.22,-151 362.78,-151 362.78,-187"/>
<text text-anchor="middle" x="238" y="-164.8" font-family="Times,serif" font-size="14.00">AdminEmployeeFlexiDeclarationModule</text>
</g>
<!-- AdminEmployeeFlexiDeclarationComponent&#45;&gt;AdminEmployeeFlexiDeclarationModule -->
<g id="edge1" class="edge">
<title>AdminEmployeeFlexiDeclarationComponent&#45;&gt;AdminEmployeeFlexiDeclarationModule</title>
<path fill="none" stroke="black" d="M268.05,-122.11C268.05,-122.11 268.05,-140.99 268.05,-140.99"/>
<polygon fill="black" stroke="black" points="264.55,-140.99 268.05,-150.99 271.55,-140.99 264.55,-140.99"/>
</g>
<!-- SharedModule -->
<g id="node3" class="node">
<title>SharedModule</title>
<polygon fill="#8dd3c7" stroke="black" points="149.42,-122 146.42,-126 125.42,-126 122.42,-122 50.58,-122 50.58,-86 149.42,-86 149.42,-122"/>
<text text-anchor="middle" x="100" y="-99.8" font-family="Times,serif" font-size="14.00">SharedModule</text>
</g>
<!-- SharedModule&#45;&gt;AdminEmployeeFlexiDeclarationModule -->
<g id="edge2" class="edge">
<title>SharedModule&#45;&gt;AdminEmployeeFlexiDeclarationModule</title>
<path fill="none" stroke="black" d="M131.29,-122.11C131.29,-122.11 131.29,-140.99 131.29,-140.99"/>
<polygon fill="black" stroke="black" points="127.79,-140.99 131.29,-150.99 134.79,-140.99 127.79,-140.99"/>
</g>
</g>
</svg>
