<?xml version="1.0" encoding="UTF-8" standalone="no"?>
<!DOCTYPE svg PUBLIC "-//W3C//DTD SVG 1.1//EN"
 "http://www.w3.org/Graphics/SVG/1.1/DTD/svg11.dtd">
<!-- Generated by graphviz version 2.46.0 (20210119.1425)
 -->
<!-- Title: dependencies Pages: 1 -->
<svg width="638pt" height="211pt"
 viewBox="0.00 0.00 638.00 211.00" xmlns="http://www.w3.org/2000/svg" xmlns:xlink="http://www.w3.org/1999/xlink">
<g id="graph0" class="graph" transform="scale(1 1) rotate(0) translate(4 207)">
<title>dependencies</title>
<polygon fill="white" stroke="transparent" points="-4,4 -4,-207 634,-207 634,4 -4,4"/>
<text text-anchor="start" x="294.01" y="-42.4" font-family="sans-serif" font-weight="bold" font-size="14.00">Legend</text>
<polygon fill="#ffffb3" stroke="transparent" points="81,-10 81,-30 101,-30 101,-10 81,-10"/>
<text text-anchor="start" x="104.63" y="-15.4" font-family="sans-serif" font-size="14.00"> &#160;Declarations</text>
<polygon fill="#8dd3c7" stroke="transparent" points="194,-10 194,-30 214,-30 214,-10 194,-10"/>
<text text-anchor="start" x="217.73" y="-15.4" font-family="sans-serif" font-size="14.00"> &#160;Module</text>
<polygon fill="#80b1d3" stroke="transparent" points="280,-10 280,-30 300,-30 300,-10 280,-10"/>
<text text-anchor="start" x="303.78" y="-15.4" font-family="sans-serif" font-size="14.00"> &#160;Bootstrap</text>
<polygon fill="#fdb462" stroke="transparent" points="377,-10 377,-30 397,-30 397,-10 377,-10"/>
<text text-anchor="start" x="400.67" y="-15.4" font-family="sans-serif" font-size="14.00"> &#160;Providers</text>
<polygon fill="#fb8072" stroke="transparent" points="473,-10 473,-30 493,-30 493,-10 473,-10"/>
<text text-anchor="start" x="496.73" y="-15.4" font-family="sans-serif" font-size="14.00"> &#160;Exports</text>
<g id="clust1" class="cluster">
<title>cluster_AdminEmployeeFlexiConfigExcludeModule</title>
<polygon fill="none" stroke="black" stroke-dasharray="1,5" points="8,-70 8,-195 622,-195 622,-70 8,-70"/>
</g>
<g id="clust4" class="cluster">
<title>cluster_AdminEmployeeFlexiConfigExcludeModule_imports</title>
<polygon fill="none" stroke="black" points="330,-78 330,-130 614,-130 614,-78 330,-78"/>
</g>
<g id="clust2" class="cluster">
<title>cluster_AdminEmployeeFlexiConfigExcludeModule_declarations</title>
<polygon fill="none" stroke="black" points="16,-78 16,-130 322,-130 322,-78 16,-78"/>
</g>
<!-- AdminEmployeeFlexiConfigExcludeComponent -->
<g id="node1" class="node">
<title>AdminEmployeeFlexiConfigExcludeComponent</title>
<polygon fill="#ffffb3" stroke="black" points="314.02,-122 23.98,-122 23.98,-86 314.02,-86 314.02,-122"/>
<text text-anchor="middle" x="169" y="-99.8" font-family="Times,serif" font-size="14.00">AdminEmployeeFlexiConfigExcludeComponent</text>
</g>
<!-- AdminEmployeeFlexiConfigExcludeModule -->
<g id="node2" class="node">
<title>AdminEmployeeFlexiConfigExcludeModule</title>
<polygon fill="#8dd3c7" stroke="black" points="521.24,-187 518.24,-191 497.24,-191 494.24,-187 252.76,-187 252.76,-151 521.24,-151 521.24,-187"/>
<text text-anchor="middle" x="387" y="-164.8" font-family="Times,serif" font-size="14.00">AdminEmployeeFlexiConfigExcludeModule</text>
</g>
<!-- AdminEmployeeFlexiConfigExcludeComponent&#45;&gt;AdminEmployeeFlexiConfigExcludeModule -->
<g id="edge1" class="edge">
<title>AdminEmployeeFlexiConfigExcludeComponent&#45;&gt;AdminEmployeeFlexiConfigExcludeModule</title>
<path fill="none" stroke="black" d="M283.45,-122.11C283.45,-122.11 283.45,-140.99 283.45,-140.99"/>
<polygon fill="black" stroke="black" points="279.95,-140.99 283.45,-150.99 286.95,-140.99 279.95,-140.99"/>
</g>
<!-- NgxDaterangepickerMd -->
<g id="node3" class="node">
<title>NgxDaterangepickerMd</title>
<polygon fill="#8dd3c7" stroke="black" points="606.05,-122 603.05,-126 582.05,-126 579.05,-122 453.95,-122 453.95,-86 606.05,-86 606.05,-122"/>
<text text-anchor="middle" x="530" y="-99.8" font-family="Times,serif" font-size="14.00">NgxDaterangepickerMd</text>
</g>
<!-- NgxDaterangepickerMd&#45;&gt;AdminEmployeeFlexiConfigExcludeModule -->
<g id="edge2" class="edge">
<title>NgxDaterangepickerMd&#45;&gt;AdminEmployeeFlexiConfigExcludeModule</title>
<path fill="none" stroke="black" d="M487.67,-122.11C487.67,-122.11 487.67,-140.99 487.67,-140.99"/>
<polygon fill="black" stroke="black" points="484.17,-140.99 487.67,-150.99 491.17,-140.99 484.17,-140.99"/>
</g>
<!-- SharedModule -->
<g id="node4" class="node">
<title>SharedModule</title>
<polygon fill="#8dd3c7" stroke="black" points="436.42,-122 433.42,-126 412.42,-126 409.42,-122 337.58,-122 337.58,-86 436.42,-86 436.42,-122"/>
<text text-anchor="middle" x="387" y="-99.8" font-family="Times,serif" font-size="14.00">SharedModule</text>
</g>
<!-- SharedModule&#45;&gt;AdminEmployeeFlexiConfigExcludeModule -->
<g id="edge3" class="edge">
<title>SharedModule&#45;&gt;AdminEmployeeFlexiConfigExcludeModule</title>
<path fill="none" stroke="black" d="M387,-122.11C387,-122.11 387,-140.99 387,-140.99"/>
<polygon fill="black" stroke="black" points="383.5,-140.99 387,-150.99 390.5,-140.99 383.5,-140.99"/>
</g>
</g>
</svg>
