<?xml version="1.0" encoding="UTF-8" standalone="no"?>
<!DOCTYPE svg PUBLIC "-//W3C//DTD SVG 1.1//EN"
 "http://www.w3.org/Graphics/SVG/1.1/DTD/svg11.dtd">
<!-- Generated by graphviz version 2.46.0 (20210119.1425)
 -->
<!-- Title: dependencies Pages: 1 -->
<svg width="504pt" height="211pt"
 viewBox="0.00 0.00 504.00 211.00" xmlns="http://www.w3.org/2000/svg" xmlns:xlink="http://www.w3.org/1999/xlink">
<g id="graph0" class="graph" transform="scale(1 1) rotate(0) translate(4 207)">
<title>dependencies</title>
<polygon fill="white" stroke="transparent" points="-4,4 -4,-207 500,-207 500,4 -4,4"/>
<text text-anchor="start" x="227.01" y="-42.4" font-family="sans-serif" font-weight="bold" font-size="14.00">Legend</text>
<polygon fill="#ffffb3" stroke="transparent" points="14,-10 14,-30 34,-30 34,-10 14,-10"/>
<text text-anchor="start" x="37.63" y="-15.4" font-family="sans-serif" font-size="14.00"> &#160;Declarations</text>
<polygon fill="#8dd3c7" stroke="transparent" points="127,-10 127,-30 147,-30 147,-10 127,-10"/>
<text text-anchor="start" x="150.73" y="-15.4" font-family="sans-serif" font-size="14.00"> &#160;Module</text>
<polygon fill="#80b1d3" stroke="transparent" points="213,-10 213,-30 233,-30 233,-10 213,-10"/>
<text text-anchor="start" x="236.78" y="-15.4" font-family="sans-serif" font-size="14.00"> &#160;Bootstrap</text>
<polygon fill="#fdb462" stroke="transparent" points="310,-10 310,-30 330,-30 330,-10 310,-10"/>
<text text-anchor="start" x="333.67" y="-15.4" font-family="sans-serif" font-size="14.00"> &#160;Providers</text>
<polygon fill="#fb8072" stroke="transparent" points="406,-10 406,-30 426,-30 426,-10 406,-10"/>
<text text-anchor="start" x="429.73" y="-15.4" font-family="sans-serif" font-size="14.00"> &#160;Exports</text>
<g id="clust1" class="cluster">
<title>cluster_AttendanceModule</title>
<polygon fill="none" stroke="black" stroke-dasharray="1,5" points="42.5,-70 42.5,-195 453.5,-195 453.5,-70 42.5,-70"/>
</g>
<g id="clust2" class="cluster">
<title>cluster_AttendanceModule_declarations</title>
<polygon fill="none" stroke="black" points="172.5,-78 172.5,-130 445.5,-130 445.5,-78 172.5,-78"/>
</g>
<g id="clust5" class="cluster">
<title>cluster_AttendanceModule_imports</title>
<polygon fill="none" stroke="black" points="50.5,-78 50.5,-130 164.5,-130 164.5,-78 50.5,-78"/>
</g>
<!-- AttendanceComponent -->
<g id="node1" class="node">
<title>AttendanceComponent</title>
<polygon fill="#ffffb3" stroke="black" points="437.08,-122 291.92,-122 291.92,-86 437.08,-86 437.08,-122"/>
<text text-anchor="middle" x="364.5" y="-99.8" font-family="Times,serif" font-size="14.00">AttendanceComponent</text>
</g>
<!-- AttendanceModule -->
<g id="node3" class="node">
<title>AttendanceModule</title>
<polygon fill="#8dd3c7" stroke="black" points="289.3,-187 286.3,-191 265.3,-191 262.3,-187 165.7,-187 165.7,-151 289.3,-151 289.3,-187"/>
<text text-anchor="middle" x="227.5" y="-164.8" font-family="Times,serif" font-size="14.00">AttendanceModule</text>
</g>
<!-- AttendanceComponent&#45;&gt;AttendanceModule -->
<g id="edge1" class="edge">
<title>AttendanceComponent&#45;&gt;AttendanceModule</title>
<path fill="none" stroke="black" d="M291.91,-104C285.72,-104 281.76,-104 281.76,-104 281.76,-104 281.76,-140.89 281.76,-140.89"/>
<polygon fill="black" stroke="black" points="278.26,-140.89 281.76,-150.89 285.26,-140.89 278.26,-140.89"/>
</g>
<!-- TimeDiffPipe -->
<g id="node2" class="node">
<title>TimeDiffPipe</title>
<polygon fill="#ffffb3" stroke="black" points="274.25,-122 180.75,-122 180.75,-86 274.25,-86 274.25,-122"/>
<text text-anchor="middle" x="227.5" y="-99.8" font-family="Times,serif" font-size="14.00">TimeDiffPipe</text>
</g>
<!-- TimeDiffPipe&#45;&gt;AttendanceModule -->
<g id="edge2" class="edge">
<title>TimeDiffPipe&#45;&gt;AttendanceModule</title>
<path fill="none" stroke="black" d="M227.5,-122.11C227.5,-122.11 227.5,-140.99 227.5,-140.99"/>
<polygon fill="black" stroke="black" points="224,-140.99 227.5,-150.99 231,-140.99 224,-140.99"/>
</g>
<!-- SharedModule -->
<g id="node4" class="node">
<title>SharedModule</title>
<polygon fill="#8dd3c7" stroke="black" points="156.92,-122 153.92,-126 132.92,-126 129.92,-122 58.08,-122 58.08,-86 156.92,-86 156.92,-122"/>
<text text-anchor="middle" x="107.5" y="-99.8" font-family="Times,serif" font-size="14.00">SharedModule</text>
</g>
<!-- SharedModule&#45;&gt;AttendanceModule -->
<g id="edge3" class="edge">
<title>SharedModule&#45;&gt;AttendanceModule</title>
<path fill="none" stroke="black" d="M156.99,-104C166.33,-104 173.24,-104 173.24,-104 173.24,-104 173.24,-140.89 173.24,-140.89"/>
<polygon fill="black" stroke="black" points="169.74,-140.89 173.24,-150.89 176.74,-140.89 169.74,-140.89"/>
</g>
</g>
</svg>
