<?xml version="1.0" encoding="UTF-8" standalone="no"?>
<!DOCTYPE svg PUBLIC "-//W3C//DTD SVG 1.1//EN"
 "http://www.w3.org/Graphics/SVG/1.1/DTD/svg11.dtd">
<!-- Generated by graphviz version 2.46.0 (20210119.1425)
 -->
<!-- Title: dependencies Pages: 1 -->
<svg width="504pt" height="211pt"
 viewBox="0.00 0.00 504.00 211.00" xmlns="http://www.w3.org/2000/svg" xmlns:xlink="http://www.w3.org/1999/xlink">
<g id="graph0" class="graph" transform="scale(1 1) rotate(0) translate(4 207)">
<title>dependencies</title>
<polygon fill="white" stroke="transparent" points="-4,4 -4,-207 500,-207 500,4 -4,4"/>
<text text-anchor="start" x="227.01" y="-42.4" font-family="sans-serif" font-weight="bold" font-size="14.00">Legend</text>
<polygon fill="#ffffb3" stroke="transparent" points="14,-10 14,-30 34,-30 34,-10 14,-10"/>
<text text-anchor="start" x="37.63" y="-15.4" font-family="sans-serif" font-size="14.00"> &#160;Declarations</text>
<polygon fill="#8dd3c7" stroke="transparent" points="127,-10 127,-30 147,-30 147,-10 127,-10"/>
<text text-anchor="start" x="150.73" y="-15.4" font-family="sans-serif" font-size="14.00"> &#160;Module</text>
<polygon fill="#80b1d3" stroke="transparent" points="213,-10 213,-30 233,-30 233,-10 213,-10"/>
<text text-anchor="start" x="236.78" y="-15.4" font-family="sans-serif" font-size="14.00"> &#160;Bootstrap</text>
<polygon fill="#fdb462" stroke="transparent" points="310,-10 310,-30 330,-30 330,-10 310,-10"/>
<text text-anchor="start" x="333.67" y="-15.4" font-family="sans-serif" font-size="14.00"> &#160;Providers</text>
<polygon fill="#fb8072" stroke="transparent" points="406,-10 406,-30 426,-30 426,-10 406,-10"/>
<text text-anchor="start" x="429.73" y="-15.4" font-family="sans-serif" font-size="14.00"> &#160;Exports</text>
<g id="clust1" class="cluster">
<title>cluster_AdminListViewDetailsModule</title>
<polygon fill="none" stroke="black" stroke-dasharray="1,5" points="65,-70 65,-195 431,-195 431,-70 65,-70"/>
</g>
<g id="clust4" class="cluster">
<title>cluster_AdminListViewDetailsModule_imports</title>
<polygon fill="none" stroke="black" points="309,-78 309,-130 423,-130 423,-78 309,-78"/>
</g>
<g id="clust2" class="cluster">
<title>cluster_AdminListViewDetailsModule_declarations</title>
<polygon fill="none" stroke="black" points="73,-78 73,-130 301,-130 301,-78 73,-78"/>
</g>
<!-- AdminListViewDetailsComponent -->
<g id="node1" class="node">
<title>AdminListViewDetailsComponent</title>
<polygon fill="#ffffb3" stroke="black" points="292.97,-122 81.03,-122 81.03,-86 292.97,-86 292.97,-122"/>
<text text-anchor="middle" x="187" y="-99.8" font-family="Times,serif" font-size="14.00">AdminListViewDetailsComponent</text>
</g>
<!-- AdminListViewDetailsModule -->
<g id="node2" class="node">
<title>AdminListViewDetailsModule</title>
<polygon fill="#8dd3c7" stroke="black" points="352.19,-187 349.19,-191 328.19,-191 325.19,-187 161.81,-187 161.81,-151 352.19,-151 352.19,-187"/>
<text text-anchor="middle" x="257" y="-164.8" font-family="Times,serif" font-size="14.00">AdminListViewDetailsModule</text>
</g>
<!-- AdminListViewDetailsComponent&#45;&gt;AdminListViewDetailsModule -->
<g id="edge1" class="edge">
<title>AdminListViewDetailsComponent&#45;&gt;AdminListViewDetailsModule</title>
<path fill="none" stroke="black" d="M227.45,-122.11C227.45,-122.11 227.45,-140.99 227.45,-140.99"/>
<polygon fill="black" stroke="black" points="223.95,-140.99 227.45,-150.99 230.95,-140.99 223.95,-140.99"/>
</g>
<!-- SharedModule -->
<g id="node3" class="node">
<title>SharedModule</title>
<polygon fill="#8dd3c7" stroke="black" points="415.42,-122 412.42,-126 391.42,-126 388.42,-122 316.58,-122 316.58,-86 415.42,-86 415.42,-122"/>
<text text-anchor="middle" x="366" y="-99.8" font-family="Times,serif" font-size="14.00">SharedModule</text>
</g>
<!-- SharedModule&#45;&gt;AdminListViewDetailsModule -->
<g id="edge2" class="edge">
<title>SharedModule&#45;&gt;AdminListViewDetailsModule</title>
<path fill="none" stroke="black" d="M334.44,-122.11C334.44,-122.11 334.44,-140.99 334.44,-140.99"/>
<polygon fill="black" stroke="black" points="330.94,-140.99 334.44,-150.99 337.94,-140.99 330.94,-140.99"/>
</g>
</g>
</svg>
