<?xml version="1.0" encoding="UTF-8" standalone="no"?>
<!DOCTYPE svg PUBLIC "-//W3C//DTD SVG 1.1//EN"
 "http://www.w3.org/Graphics/SVG/1.1/DTD/svg11.dtd">
<!-- Generated by graphviz version 2.46.0 (20210119.1425)
 -->
<!-- Title: dependencies Pages: 1 -->
<svg width="504pt" height="211pt"
 viewBox="0.00 0.00 504.00 211.00" xmlns="http://www.w3.org/2000/svg" xmlns:xlink="http://www.w3.org/1999/xlink">
<g id="graph0" class="graph" transform="scale(1 1) rotate(0) translate(4 207)">
<title>dependencies</title>
<polygon fill="white" stroke="transparent" points="-4,4 -4,-207 500,-207 500,4 -4,4"/>
<text text-anchor="start" x="227.01" y="-42.4" font-family="sans-serif" font-weight="bold" font-size="14.00">Legend</text>
<polygon fill="#ffffb3" stroke="transparent" points="14,-10 14,-30 34,-30 34,-10 14,-10"/>
<text text-anchor="start" x="37.63" y="-15.4" font-family="sans-serif" font-size="14.00"> &#160;Declarations</text>
<polygon fill="#8dd3c7" stroke="transparent" points="127,-10 127,-30 147,-30 147,-10 127,-10"/>
<text text-anchor="start" x="150.73" y="-15.4" font-family="sans-serif" font-size="14.00"> &#160;Module</text>
<polygon fill="#80b1d3" stroke="transparent" points="213,-10 213,-30 233,-30 233,-10 213,-10"/>
<text text-anchor="start" x="236.78" y="-15.4" font-family="sans-serif" font-size="14.00"> &#160;Bootstrap</text>
<polygon fill="#fdb462" stroke="transparent" points="310,-10 310,-30 330,-30 330,-10 310,-10"/>
<text text-anchor="start" x="333.67" y="-15.4" font-family="sans-serif" font-size="14.00"> &#160;Providers</text>
<polygon fill="#fb8072" stroke="transparent" points="406,-10 406,-30 426,-30 426,-10 406,-10"/>
<text text-anchor="start" x="429.73" y="-15.4" font-family="sans-serif" font-size="14.00"> &#160;Exports</text>
<g id="clust1" class="cluster">
<title>cluster_EmergencyModule</title>
<polygon fill="none" stroke="black" stroke-dasharray="1,5" points="98,-70 98,-195 398,-195 398,-70 98,-70"/>
</g>
<g id="clust4" class="cluster">
<title>cluster_EmergencyModule_imports</title>
<polygon fill="none" stroke="black" points="276,-78 276,-130 390,-130 390,-78 276,-78"/>
</g>
<g id="clust2" class="cluster">
<title>cluster_EmergencyModule_declarations</title>
<polygon fill="none" stroke="black" points="106,-78 106,-130 268,-130 268,-78 106,-78"/>
</g>
<!-- EmergencyComponent -->
<g id="node1" class="node">
<title>EmergencyComponent</title>
<polygon fill="#ffffb3" stroke="black" points="259.58,-122 114.42,-122 114.42,-86 259.58,-86 259.58,-122"/>
<text text-anchor="middle" x="187" y="-99.8" font-family="Times,serif" font-size="14.00">EmergencyComponent</text>
</g>
<!-- EmergencyModule -->
<g id="node2" class="node">
<title>EmergencyModule</title>
<polygon fill="#8dd3c7" stroke="black" points="318.8,-187 315.8,-191 294.8,-191 291.8,-187 195.2,-187 195.2,-151 318.8,-151 318.8,-187"/>
<text text-anchor="middle" x="257" y="-164.8" font-family="Times,serif" font-size="14.00">EmergencyModule</text>
</g>
<!-- EmergencyComponent&#45;&gt;EmergencyModule -->
<g id="edge1" class="edge">
<title>EmergencyComponent&#45;&gt;EmergencyModule</title>
<path fill="none" stroke="black" d="M227.45,-122.11C227.45,-122.11 227.45,-140.99 227.45,-140.99"/>
<polygon fill="black" stroke="black" points="223.95,-140.99 227.45,-150.99 230.95,-140.99 223.95,-140.99"/>
</g>
<!-- SharedModule -->
<g id="node3" class="node">
<title>SharedModule</title>
<polygon fill="#8dd3c7" stroke="black" points="382.42,-122 379.42,-126 358.42,-126 355.42,-122 283.58,-122 283.58,-86 382.42,-86 382.42,-122"/>
<text text-anchor="middle" x="333" y="-99.8" font-family="Times,serif" font-size="14.00">SharedModule</text>
</g>
<!-- SharedModule&#45;&gt;EmergencyModule -->
<g id="edge2" class="edge">
<title>SharedModule&#45;&gt;EmergencyModule</title>
<path fill="none" stroke="black" d="M301.22,-122.11C301.22,-122.11 301.22,-140.99 301.22,-140.99"/>
<polygon fill="black" stroke="black" points="297.72,-140.99 301.22,-150.99 304.72,-140.99 297.72,-140.99"/>
</g>
</g>
</svg>
