<?xml version="1.0" encoding="UTF-8" standalone="no"?>
<!DOCTYPE svg PUBLIC "-//W3C//DTD SVG 1.1//EN"
 "http://www.w3.org/Graphics/SVG/1.1/DTD/svg11.dtd">
<!-- Generated by graphviz version 2.46.0 (20210119.1425)
 -->
<!-- Title: dependencies Pages: 1 -->
<svg width="504pt" height="211pt"
 viewBox="0.00 0.00 504.00 211.00" xmlns="http://www.w3.org/2000/svg" xmlns:xlink="http://www.w3.org/1999/xlink">
<g id="graph0" class="graph" transform="scale(1 1) rotate(0) translate(4 207)">
<title>dependencies</title>
<polygon fill="white" stroke="transparent" points="-4,4 -4,-207 500,-207 500,4 -4,4"/>
<text text-anchor="start" x="227.01" y="-42.4" font-family="sans-serif" font-weight="bold" font-size="14.00">Legend</text>
<polygon fill="#ffffb3" stroke="transparent" points="14,-10 14,-30 34,-30 34,-10 14,-10"/>
<text text-anchor="start" x="37.63" y="-15.4" font-family="sans-serif" font-size="14.00"> &#160;Declarations</text>
<polygon fill="#8dd3c7" stroke="transparent" points="127,-10 127,-30 147,-30 147,-10 127,-10"/>
<text text-anchor="start" x="150.73" y="-15.4" font-family="sans-serif" font-size="14.00"> &#160;Module</text>
<polygon fill="#80b1d3" stroke="transparent" points="213,-10 213,-30 233,-30 233,-10 213,-10"/>
<text text-anchor="start" x="236.78" y="-15.4" font-family="sans-serif" font-size="14.00"> &#160;Bootstrap</text>
<polygon fill="#fdb462" stroke="transparent" points="310,-10 310,-30 330,-30 330,-10 310,-10"/>
<text text-anchor="start" x="333.67" y="-15.4" font-family="sans-serif" font-size="14.00"> &#160;Providers</text>
<polygon fill="#fb8072" stroke="transparent" points="406,-10 406,-30 426,-30 426,-10 406,-10"/>
<text text-anchor="start" x="429.73" y="-15.4" font-family="sans-serif" font-size="14.00"> &#160;Exports</text>
<g id="clust1" class="cluster">
<title>cluster_AttendanceAdminModule</title>
<polygon fill="none" stroke="black" stroke-dasharray="1,5" points="79,-70 79,-195 417,-195 417,-70 79,-70"/>
</g>
<g id="clust4" class="cluster">
<title>cluster_AttendanceAdminModule_imports</title>
<polygon fill="none" stroke="black" points="295,-78 295,-130 409,-130 409,-78 295,-78"/>
</g>
<g id="clust2" class="cluster">
<title>cluster_AttendanceAdminModule_declarations</title>
<polygon fill="none" stroke="black" points="87,-78 87,-130 287,-130 287,-78 87,-78"/>
</g>
<!-- AttendanceAdminComponent -->
<g id="node1" class="node">
<title>AttendanceAdminComponent</title>
<polygon fill="#ffffb3" stroke="black" points="278.97,-122 95.03,-122 95.03,-86 278.97,-86 278.97,-122"/>
<text text-anchor="middle" x="187" y="-99.8" font-family="Times,serif" font-size="14.00">AttendanceAdminComponent</text>
</g>
<!-- AttendanceAdminModule -->
<g id="node2" class="node">
<title>AttendanceAdminModule</title>
<polygon fill="#8dd3c7" stroke="black" points="338.18,-187 335.18,-191 314.18,-191 311.18,-187 175.82,-187 175.82,-151 338.18,-151 338.18,-187"/>
<text text-anchor="middle" x="257" y="-164.8" font-family="Times,serif" font-size="14.00">AttendanceAdminModule</text>
</g>
<!-- AttendanceAdminComponent&#45;&gt;AttendanceAdminModule -->
<g id="edge1" class="edge">
<title>AttendanceAdminComponent&#45;&gt;AttendanceAdminModule</title>
<path fill="none" stroke="black" d="M227.45,-122.11C227.45,-122.11 227.45,-140.99 227.45,-140.99"/>
<polygon fill="black" stroke="black" points="223.95,-140.99 227.45,-150.99 230.95,-140.99 223.95,-140.99"/>
</g>
<!-- SharedModule -->
<g id="node3" class="node">
<title>SharedModule</title>
<polygon fill="#8dd3c7" stroke="black" points="401.42,-122 398.42,-126 377.42,-126 374.42,-122 302.58,-122 302.58,-86 401.42,-86 401.42,-122"/>
<text text-anchor="middle" x="352" y="-99.8" font-family="Times,serif" font-size="14.00">SharedModule</text>
</g>
<!-- SharedModule&#45;&gt;AttendanceAdminModule -->
<g id="edge2" class="edge">
<title>SharedModule&#45;&gt;AttendanceAdminModule</title>
<path fill="none" stroke="black" d="M320.44,-122.11C320.44,-122.11 320.44,-140.99 320.44,-140.99"/>
<polygon fill="black" stroke="black" points="316.94,-140.99 320.44,-150.99 323.94,-140.99 316.94,-140.99"/>
</g>
</g>
</svg>
