<?xml version="1.0" encoding="UTF-8" standalone="no"?>
<!DOCTYPE svg PUBLIC "-//W3C//DTD SVG 1.1//EN"
 "http://www.w3.org/Graphics/SVG/1.1/DTD/svg11.dtd">
<!-- Generated by graphviz version 2.46.0 (20210119.1425)
 -->
<!-- Title: dependencies Pages: 1 -->
<svg width="504pt" height="211pt"
 viewBox="0.00 0.00 504.00 211.00" xmlns="http://www.w3.org/2000/svg" xmlns:xlink="http://www.w3.org/1999/xlink">
<g id="graph0" class="graph" transform="scale(1 1) rotate(0) translate(4 207)">
<title>dependencies</title>
<polygon fill="white" stroke="transparent" points="-4,4 -4,-207 500,-207 500,4 -4,4"/>
<text text-anchor="start" x="227.01" y="-42.4" font-family="sans-serif" font-weight="bold" font-size="14.00">Legend</text>
<polygon fill="#ffffb3" stroke="transparent" points="14,-10 14,-30 34,-30 34,-10 14,-10"/>
<text text-anchor="start" x="37.63" y="-15.4" font-family="sans-serif" font-size="14.00"> &#160;Declarations</text>
<polygon fill="#8dd3c7" stroke="transparent" points="127,-10 127,-30 147,-30 147,-10 127,-10"/>
<text text-anchor="start" x="150.73" y="-15.4" font-family="sans-serif" font-size="14.00"> &#160;Module</text>
<polygon fill="#80b1d3" stroke="transparent" points="213,-10 213,-30 233,-30 233,-10 213,-10"/>
<text text-anchor="start" x="236.78" y="-15.4" font-family="sans-serif" font-size="14.00"> &#160;Bootstrap</text>
<polygon fill="#fdb462" stroke="transparent" points="310,-10 310,-30 330,-30 330,-10 310,-10"/>
<text text-anchor="start" x="333.67" y="-15.4" font-family="sans-serif" font-size="14.00"> &#160;Providers</text>
<polygon fill="#fb8072" stroke="transparent" points="406,-10 406,-30 426,-30 426,-10 406,-10"/>
<text text-anchor="start" x="429.73" y="-15.4" font-family="sans-serif" font-size="14.00"> &#160;Exports</text>
<g id="clust1" class="cluster">
<title>cluster_AdminListViewModule</title>
<polygon fill="none" stroke="black" stroke-dasharray="1,5" points="85,-70 85,-195 411,-195 411,-70 85,-70"/>
</g>
<g id="clust2" class="cluster">
<title>cluster_AdminListViewModule_declarations</title>
<polygon fill="none" stroke="black" points="215,-78 215,-130 403,-130 403,-78 215,-78"/>
</g>
<g id="clust4" class="cluster">
<title>cluster_AdminListViewModule_imports</title>
<polygon fill="none" stroke="black" points="93,-78 93,-130 207,-130 207,-78 93,-78"/>
</g>
<!-- AdminListViewComponent -->
<g id="node1" class="node">
<title>AdminListViewComponent</title>
<polygon fill="#ffffb3" stroke="black" points="395.32,-122 222.68,-122 222.68,-86 395.32,-86 395.32,-122"/>
<text text-anchor="middle" x="309" y="-99.8" font-family="Times,serif" font-size="14.00">AdminListViewComponent</text>
</g>
<!-- AdminListViewModule -->
<g id="node2" class="node">
<title>AdminListViewModule</title>
<polygon fill="#8dd3c7" stroke="black" points="313.04,-187 310.04,-191 289.04,-191 286.04,-187 162.96,-187 162.96,-151 313.04,-151 313.04,-187"/>
<text text-anchor="middle" x="238" y="-164.8" font-family="Times,serif" font-size="14.00">AdminListViewModule</text>
</g>
<!-- AdminListViewComponent&#45;&gt;AdminListViewModule -->
<g id="edge1" class="edge">
<title>AdminListViewComponent&#45;&gt;AdminListViewModule</title>
<path fill="none" stroke="black" d="M268.05,-122.11C268.05,-122.11 268.05,-140.99 268.05,-140.99"/>
<polygon fill="black" stroke="black" points="264.55,-140.99 268.05,-150.99 271.55,-140.99 264.55,-140.99"/>
</g>
<!-- SharedModule -->
<g id="node3" class="node">
<title>SharedModule</title>
<polygon fill="#8dd3c7" stroke="black" points="199.42,-122 196.42,-126 175.42,-126 172.42,-122 100.58,-122 100.58,-86 199.42,-86 199.42,-122"/>
<text text-anchor="middle" x="150" y="-99.8" font-family="Times,serif" font-size="14.00">SharedModule</text>
</g>
<!-- SharedModule&#45;&gt;AdminListViewModule -->
<g id="edge2" class="edge">
<title>SharedModule&#45;&gt;AdminListViewModule</title>
<path fill="none" stroke="black" d="M180.97,-122.11C180.97,-122.11 180.97,-140.99 180.97,-140.99"/>
<polygon fill="black" stroke="black" points="177.47,-140.99 180.97,-150.99 184.47,-140.99 177.47,-140.99"/>
</g>
</g>
</svg>
